<?xml version="1.0" standalone="no"?>
<!DOCTYPE svg PUBLIC "-//W3C//DTD SVG 1.1//EN" "http://www.w3.org/Graphics/SVG/1.1/DTD/svg11.dtd" >
<svg xmlns="http://www.w3.org/2000/svg" width="100%" height="100%">
<metadata>
Created by FontXChange 20110222 at Tue Apr 23 18:45:55 2013
 By Animal
Digitized data copyright (c) 2011, Google Corporation.
</metadata>
<defs>
<font id="AndroidEmoji" horiz-adv-x="2600" vert-adv-y="2048" >
  <font-face 
    font-family="Android Emoji"
    font-weight="400"
    font-stretch="normal"
    units-per-em="2048"
    panose-1="0 0 0 0 0 0 0 0 0 0"
    ascent="1638"
    descent="-410"
    bbox="-50 -733 2550 2181"
    underline-thickness="102"
    underline-position="-103"
    unicode-range="U+000D-FE4EE"
  />
<missing-glyph vert-adv-y="2850" 
d="M817 1589v-1716h866v1716h-866zM675 -269v2000h1150v-2000h-1150z" />
    <glyph glyph-name=".notdef" vert-adv-y="2850" 
d="M817 1589v-1716h866v1716h-866zM675 -269v2000h1150v-2000h-1150z" />
    <glyph glyph-name="NULL" vert-adv-y="2850" 
 />
    <glyph glyph-name="nonmarkingreturn" unicode="&#xd;" vert-adv-y="2850" 
 />
    <glyph glyph-name="space" unicode=" " vert-adv-y="2850" 
 />
    <glyph glyph-name="numbersign" unicode="#" vert-adv-y="2850" 
d="M1093 953l-87 -449h398l87 449h-398zM2085 953h-395l-86 -449h383v-188h-420l-112 -585h-202l115 585h-398l-112 -585h-197l107 585h-353v188h390l89 449h-375v187h409l112 591h201l-112 -591h401l115 591h197l-115 -591h358v-187z" />
    <glyph glyph-name="zero" unicode="0" vert-adv-y="2850" 
d="M864 733q0 -430 91 -624t292 -194q202 0 296 193q94 192 94 625q0 429 -94 623q-95 193 -296 193q-202 0 -292 -195q-91 -194 -91 -621zM1889 733q0 -525 -158.5 -777.5t-483.5 -252.5q-156 0 -275 67t-199.5 197.5t-121 322.5t-40.5 443q0 524 156.5 776.5t479.5 252.5
q159 0 279 -67t200.5 -197.5t121.5 -322.5t41 -442z" />
    <glyph glyph-name="one" unicode="1" vert-adv-y="2850" 
d="M1615 1731v-2000h-241v1249q0 61 3 184t8 310q-24 -25 -54 -53.5t-68 -62.5q-38 -35 -99.5 -85t-146.5 -119l-132 168l524 409h206z" />
    <glyph glyph-name="two" unicode="2" vert-adv-y="2850" 
d="M1874 -46v-227h-1248v214l479 521q224 244 295 344q36 51 63 100t45 98.5t26.5 100.5t8.5 106q0 156 -88 244q-89 90 -235 90q-65 0 -123.5 -14t-111.5 -38.5t-102.5 -59t-96.5 -75.5l-139 163q259 235 576 235q264 0 418 -145q153 -143 153 -390q0 -126 -45 -246
q-23 -61 -55.5 -121.5t-76.5 -123.5t-118 -151.5t-183 -204.5l-385 -409v-11h943z" />
    <glyph glyph-name="three" unicode="3" vert-adv-y="2850" 
d="M1820 1263q0 -96 -29 -176t-84.5 -141.5t-135.5 -102.5t-183 -59v-8q121 -15 213.5 -54t154.5 -100t94 -142t32 -180q0 -282 -190 -439q-190 -158 -545 -158q-327 0 -529 109v232q60 -31 125 -55.5t132.5 -41t135 -25.5t131.5 -9q238 0 361 98t123 297
q0 174 -130.5 263.5t-390.5 89.5h-182v207h182q216 0 338 102q122 104 122 277q0 70 -24 126t-68.5 95t-108 60t-141.5 21q-74 0 -137.5 -12t-121 -34t-109.5 -52.5t-103 -67.5l-126 171q121 100 275.5 153t321.5 53q278 0 439 -135q158 -132 158 -362z" />
    <glyph glyph-name="four" unicode="4" vert-adv-y="2850" 
d="M766 405h680v487q0 106 4 223.5t9 251.5l4 116h-12q-23 -65 -60 -137q-19 -35 -34 -62t-29 -47zM1978 405v-227h-292v-448h-240v448h-924v218l907 1344h257v-1335h292z" />
    <glyph glyph-name="five" unicode="5" vert-adv-y="2850" 
d="M1212 962q290 0 466 -158t176 -428q0 -320 -190 -495q-189 -174 -531 -174q-71 0 -140 7t-131.5 20.5t-117.5 33.5t-98 47v236q84 -60 226 -96q141 -36 268 -36q229 0 343.5 110.5t114.5 319.5q0 197 -119.5 299.5t-350.5 102.5q-66 0 -144 -9t-172 -26l-124 78l76 941
h944v-227h-728l-54 -574q74 14 145 21t141 7z" />
    <glyph glyph-name="six" unicode="6" vert-adv-y="2850" 
d="M1270 -87q87 1 155.5 31t116 88t72.5 144t25 199q0 199 -93.5 304t-267.5 108q-83 1 -157.5 -30t-130.5 -82.5t-88.5 -117t-32.5 -134.5q1 -102 31 -195t83 -163.5t126.5 -112t160.5 -39.5zM620 586q1 299 56 519.5t164 366t272.5 217t381.5 71.5q146 0 235 -26v-212
q-48 16 -104.5 24t-122.5 8q-306 0 -459 -191q-154 -190 -169 -613h17q129 233 420 233q269 0 418 -163q151 -163 151 -445q0 -313 -164 -492q-82 -91 -192.5 -134.5t-250.5 -45.5q-147 -2 -268 58t-206.5 173.5t-132 278t-46.5 373.5z" />
    <glyph glyph-name="seven" unicode="7" vert-adv-y="2850" 
d="M1134 -269h-266l771 1773h-1032v227h1286v-198z" />
    <glyph glyph-name="eight" unicode="8" vert-adv-y="2850" 
d="M1247 1554q-72 0 -130.5 -18.5t-100 -54t-63.5 -88.5t-22 -122q0 -85 32 -151q15 -32 38 -61t55 -55t81 -53.5t116 -59.5q173 79 245 169q72 92 72 211q0 69 -22 122t-64 88.5t-102 54t-135 18.5zM867 238q0 -161 97.5 -244.5t280.5 -83.5q93 0 165 23t122 66.5t76 106.5
t26 143q0 129 -95 227q-48 49 -128.5 100.5t-196.5 106.5q-86 -41 -151 -87.5t-108.5 -101t-65.5 -118t-22 -138.5zM1250 1762q251 -1 408 -131q156 -132 156 -351q0 -156 -86.5 -276.5t-272.5 -214.5q112 -60 192.5 -122t131.5 -128.5t75 -137.5t24 -149q0 -249 -172 -400
q-172 -149 -456 -149q-297 0 -462 141q-166 141 -166 397q0 351 387 537q-86 54 -146 112t-98.5 120.5t-57 130.5t-19.5 142q-2 108 40.5 196.5t118 151.5t179 97.5t224.5 33.5z" />
    <glyph glyph-name="nine" unicode="9" vert-adv-y="2850" 
d="M1231 1549q-177 0 -273.5 -118.5t-96.5 -344.5q0 -199 93.5 -303.5t268.5 -107.5q84 -2 159 29.5t131 83t88 117.5t31 134q-2 69 -14.5 133t-37.5 124q-51 121 -142 187t-207 66zM1881 877q-2 -596 -219 -885t-656 -289q-67 0 -136 9q-34 4 -58.5 8t-40.5 8v213
q92 -34 227 -34q211 0 344 88t202 257q35 86 55.5 200t26.5 260h-18q-129 -233 -420 -233q-267 0 -418 163t-151 444q0 308 163 492q81 91 192 135.5t254 46.5q148 1 269 -59.5t206.5 -175t131.5 -278.5t46 -370z" />
    <glyph glyph-name="trademark" unicode="&#x2122;" vert-adv-y="2850" 
d="M2290 1604l87 -1215q1 -11 -6.5 -20t-19.5 -9h-215q-25 0 -26 25l-41 507l-163 -513q-6 -19 -22 -19h-161q-20 0 -26 19l-162 513l-42 -507q-2 -12 -7 -18.5t-19 -6.5h-214q-28 0 -26 29l87 1215q3 24 26 24h228q22 0 26 -19l208 -807l208 807q4 19 26 19h228
q24 0 26 -24zM149 1634h979q24 0 24 -25v-219q0 -26 -24 -26h-352v-983q0 -25 -26 -25h-224q-25 0 -25 25v983h-352q-11 0 -18.5 7.5t-7.5 18.5v219q0 25 26 25z" />
    <glyph glyph-name="nonbreakingspace" unicode="&#xa0;" vert-adv-y="2850" 
 />
    <glyph glyph-name="copyright" unicode="&#xa9;" vert-adv-y="2850" 
d="M1749 273l1 -5q0 -7 -5 -11q-185 -160 -451 -160q-188 0 -339 82q-76 42 -135.5 99t-102.5 132q-42 75 -62.5 157t-22.5 173t20.5 174.5t65 155.5t103 130.5t134.5 99.5t159.5 62.5t179.5 20.5q89 -2 165.5 -15.5t142.5 -42.5q132 -56 132 -84l-2 -7l-148 -270
q-4 -7 -9 -7l-12 3q-50 40 -121 62t-146 22q-136 0 -226 -85q-89 -84 -89 -219q0 -134 88 -219q44 -43 101 -64t126 -21q67 0 152 29q86 29 146 75l11 3q6 0 10 -7zM1251 -200q254 0 470 126q110 63 195.5 149.5t148.5 195.5t94.5 225.5t31.5 243.5q0 252 -128 472
q-63 109 -148.5 194.5t-194.5 148.5q-218 126 -469 126q-129 0 -247 -31.5t-228 -97.5q-109 -64 -194 -150.5t-148 -195.5q-124 -215 -124 -466q0 -253 124 -468q124 -216 345 -345q218 -127 472 -127zM1251 1781q283 0 528 -145q242 -144 376 -383q135 -242 135 -513
q0 -142 -35 -271t-104 -250q-137 -238 -379 -379q-241 -140 -521 -140q-276 0 -515 136q-238 134 -383 377q-143 244 -143 527q0 281 139 520t379 380t523 141z" />
    <glyph glyph-name="registered" unicode="&#xae;" vert-adv-y="2850" 
d="M1108 779h204q65 0 112 51q48 51 48 122q0 39 -12 71t-34 54.5t-53 35t-68 12.5h-205q-7 0 -7 -6v-334q0 -6 15 -6zM1803 153q0 -11 -8 -19.5t-19 -8.5h-259q-16 0 -23 11l-297 396h-102v-379q0 -26 -26 -26h-259q-26 0 -26 26v1191q0 11 7.5 19.5t18.5 8.5h528
q89 0 163.5 -31t137.5 -94q125 -123 125 -295q0 -65 -18.5 -124t-53 -109.5t-83 -90t-108.5 -65.5l297 -394q5 -5 5 -16zM1251 -200q253 0 468 124q216 127 343 345q129 220 129 472q0 255 -129 473q-66 111 -151.5 196t-194.5 148q-215 124 -465 124q-128 0 -244 -32
t-227 -95q-220 -127 -345 -345q-125 -220 -125 -469q0 -254 125 -471q128 -220 346 -344q220 -126 470 -126zM1251 1782q286 0 528 -145q242 -144 376 -383q135 -240 135 -513q0 -274 -135 -514q-135 -241 -378 -383q-242 -144 -526 -144q-281 0 -522 139q-240 141 -380 379
q-70 121 -104.5 251.5t-34.5 271.5q0 281 139 520q140 241 379 380q240 141 523 141z" />
    <glyph glyph-name="_204" vert-adv-y="2850" 
 />
    <glyph glyph-name="uni2000" unicode="&#x2000;" vert-adv-y="2850" 
 />
    <glyph glyph-name="uni2001" unicode="&#x2001;" vert-adv-y="2850" 
 />
    <glyph glyph-name="uni2002" unicode="&#x2002;" vert-adv-y="2850" 
 />
    <glyph glyph-name="uni2003" unicode="&#x2003;" vert-adv-y="2850" 
 />
    <glyph glyph-name="uni2004" unicode="&#x2004;" vert-adv-y="2850" 
 />
    <glyph glyph-name="uni2005" unicode="&#x2005;" vert-adv-y="2850" 
 />
    <glyph glyph-name="uni2006" unicode="&#x2006;" vert-adv-y="2850" 
 />
    <glyph glyph-name="uni2007" unicode="&#x2007;" vert-adv-y="2850" 
 />
    <glyph glyph-name="uni2008" unicode="&#x2008;" vert-adv-y="2850" 
 />
    <glyph glyph-name="uni2009" unicode="&#x2009;" vert-adv-y="2850" 
 />
    <glyph glyph-name="uni200A" unicode="&#x200a;" vert-adv-y="2850" 
 />
    <glyph glyph-name="uni200B" unicode="&#x200b;" vert-adv-y="2850" 
 />
    <glyph glyph-name="exclamdbl" unicode="&#x203c;" vert-adv-y="2850" 
d="M1398 -36q0 100 54 149.5t153 49.5q98 0 150 -52t52 -147q0 -91 -51.5 -144.5t-150.5 -53.5q-93 0 -150 48.5t-57 149.5zM1729 486h-253q-15 0 -16 13l-70 991q0 15 18 15h390q18 0 18 -15l-69 -991q0 -7 -5 -10t-13 -3zM693 -36q0 100 53.5 149.5t152.5 49.5
q98 0 150.5 -52t52.5 -147q0 -91 -52 -144.5t-151 -53.5q-93 0 -149.5 48.5t-56.5 149.5zM1024 486h-253q-16 0 -17 13l-70 991q0 15 18 15h390q18 0 18 -15l-69 -991q0 -7 -5 -10t-12 -3z" />
    <glyph glyph-name="uni2049" unicode="&#x2049;" vert-adv-y="2850" 
d="M466 -38q0 198 205 198q97 0 150.5 -51t53.5 -147q0 -91 -53.5 -145t-150.5 -54q-98 0 -151.5 53.5t-53.5 145.5zM796 483h-252q-17 0 -18 13l-68 991q-1 16 16 16h392q18 0 17 -16l-69 -991q-1 -13 -18 -13zM1280 -38q0 198 205 198q100 0 152 -52t52 -146
q0 -95 -55 -147t-149 -52q-100 0 -152.5 51t-52.5 148zM1626 361h-308v85q0 111 44 193q45 82 166 178q119 94 147 143q15 26 23 56.5t8 68.5q0 32 -11 60t-33.5 48.5t-57 32t-80.5 11.5q-134 0 -366 -117l-119 257q265 147 489 147q240 0 377 -114q137 -112 137 -310
q0 -123 -53 -218q-53 -92 -204 -213q-57 -45 -90.5 -77.5t-45.5 -52.5q-23 -40 -23 -108v-70z" />
    <glyph glyph-name="uni20E3" unicode="&#x20e3;" vert-adv-y="2850" 
d="M2028 1544l152 153l-9 2h-1843q-14 0 -23.5 -10t-9.5 -23v-1843q0 -12 10 -23l153 154q-25 28 -25 62v1457q0 36 26 61.5t62 25.5h1457q31 0 50 -16zM514 1473v-1457q0 -7 7 -7h1457q8 0 8 7v1457q0 7 -8 7h-1457q-7 0 -7 -7zM328 1778h1843q23 0 43.5 -9t35.5 -24
t24 -35.5t9 -43.5v-1843q0 -23 -9 -43t-24 -35t-35.5 -24t-43.5 -9h-1843q-23 0 -43 9t-35 24t-24 35t-9 43v1843q0 23 9 43.5t24 35.5t35 24t43 9z" />
    <glyph glyph-name="uni2139" unicode="&#x2139;" vert-adv-y="2850" 
d="M1251 -179q254 0 474 128q222 129 348 348q127 224 127 475q0 254 -127 474q-127 218 -348 347q-219 129 -474 129q-128 0 -245 -31.5t-229 -94.5q-218 -124 -348 -348q-129 -219 -129 -476q0 -255 127 -476q64 -110 150.5 -197t197.5 -150q221 -128 476 -128zM1251 1882
q298 0 555 -149q129 -75 229.5 -176.5t175.5 -230.5q149 -255 149 -554q0 -297 -149 -554q-75 -129 -175.5 -231t-229.5 -177q-257 -149 -555 -149q-301 0 -557 149q-129 75 -230 176t-176 232q-148 257 -148 554q0 300 150 557q75 129 177 229.5t231 175.5q258 148 553 148
zM1137 204v831h227v-831h-227zM1251 1359q123 0 123 -111t-123 -111t-123 111t123 111z" />
    <glyph glyph-name="arrowboth" unicode="&#x2194;" vert-adv-y="2850" 
d="M857 972h786v401l876 -642l-876 -643v401h-786v-401l-876 643l876 642v-401z" />
    <glyph glyph-name="arrowupdn" unicode="&#x2195;" vert-adv-y="2850" 
d="M1491 1155v-787h401l-641 -875l-643 875h401v787h-401l643 875l641 -875h-401z" />
    <glyph glyph-name="uni2196" unicode="&#x2196;" vert-adv-y="2850" 
d="M732 368l-166 1074l1073 -166l-284 -283l579 -577l-339 -340l-578 579z" />
    <glyph glyph-name="uni2197" unicode="&#x2197;" vert-adv-y="2850" 
d="M859 1277l1074 166l-166 -1073l-283 284l-577 -579l-340 339l579 578z" />
    <glyph glyph-name="uni2198" unicode="&#x2198;" vert-adv-y="2850" 
d="M1768 1150l166 -1074l-1073 166l284 283l-579 577l339 340l578 -579z" />
    <glyph glyph-name="uni2199" unicode="&#x2199;" vert-adv-y="2850" 
d="M1641 241l-1074 -166l166 1073l283 -284l577 579l340 -339l-579 -578z" />
    <glyph glyph-name="uni21A9" unicode="&#x21a9;" vert-adv-y="2850" 
d="M816 350h349q298 0 469 45q84 22 146 57.5t102.5 86.5t60 119t19.5 156q0 172 -79 272q-79 99 -248 145q-85 23 -201.5 34.5t-268.5 11.5h-786v330h786q579 0 853 -197q274 -196 274 -596t-272 -597q-274 -197 -855 -197h-349v-279l-608 445l608 446v-282z" />
    <glyph glyph-name="uni21AA" unicode="&#x21aa;" vert-adv-y="2850" 
d="M1336 350h348v282l608 -446l-608 -445v279h-348q-584 0 -855 196q-273 195 -273 598q0 399 273 596q272 197 855 197h785v-330h-785q-302 0 -471 -45q-85 -23 -146.5 -58.5t-101.5 -86.5t-59.5 -118.5t-19.5 -154.5q0 -177 78 -274q79 -99 248 -145q85 -23 202.5 -34
t269.5 -11z" />
    <glyph glyph-name="uni231A" unicode="&#x231a;" vert-adv-y="2850" 
d="M1750 480q20 0 34 -13.5t14 -33.5q0 -22 -15.5 -35t-32.5 -13q-22 0 -35 15.5t-13 32.5q0 21 15.5 34t32.5 13zM1468 197q0 20 14 34t34 14t33.5 -14t13.5 -34t-14 -33t-34 -13q-18 0 -32.5 12t-14.5 34zM1195 159q20 0 33.5 -13.5t13.5 -33.5t-13.5 -33.5t-33.5 -13.5
t-34 13.5t-14 33.5t14 33.5t34 13.5zM873 245q17 0 32.5 -13t15.5 -33t-13.5 -34t-33.5 -14t-33.5 13t-13.5 33t13 34t33 14zM591 433q0 20 14 33.5t34 13.5q17 0 32 -13t15 -34q0 -17 -12.5 -32.5t-34.5 -15.5q-20 0 -34 13t-14 35zM553 801q20 0 34 -13.5t14 -33.5
t-14 -34t-34 -14t-33.5 14t-13.5 34t13.5 33.5t33.5 13.5zM639 1122q17 0 32 -14t15 -34q0 -22 -15 -35t-32 -13q-22 0 -35 15.5t-13 32.5q0 22 15.5 35t32.5 13zM1195 1348q-20 0 -34 13t-14 33q0 21 14 34.5t34 13.5t33.5 -13.5t13.5 -34.5q0 -20 -13.5 -33t-33.5 -13z
M921 1308q0 -20 -14 -33t-34 -13t-33 13.5t-13 33.5q0 18 13 32.5t33 14.5t34 -13t14 -35zM1516 1262q-17 0 -32.5 13t-15.5 33t14 34t34 14t33.5 -14.5t13.5 -32.5q0 -20 -13.5 -33.5t-33.5 -13.5zM1788 754q0 20 14 33.5t34 13.5t33.5 -13.5t13.5 -33.5t-13.5 -34
t-33.5 -14t-34 14t-14 34zM1195 706q20 0 33.5 14t13.5 34q0 16 -13 31.5t-34 15.5t-34.5 -15t-13.5 -32q0 -20 13.5 -34t34.5 -14zM1260 861l487 279l60 -106l-487 -279q0 -26 -9.5 -49t-26 -40.5t-39.5 -27.5t-50 -10q-25 0 -47.5 9.5t-40 26.5t-28 40.5t-10.5 52.5
l-286 165l60 104l287 -165q30 17 65 17q37 0 65 -17zM1936 754q0 196 -101 369t-272 273q-174 99 -368 99q-100 0 -193 -25t-179 -76q-173 -102 -271 -272q-99 -170 -99 -368t99 -369q98 -172 271 -273q86 -51 179 -75t193 -24t192.5 24t179.5 75q171 100 271 274
q98 173 98 368zM2002 904h124v-300h-124q-32 -167 -121.5 -302.5t-224.5 -226.5v-352h-922v352q-165 109 -263 289q-97 179 -97 390q0 103 23.5 198t72.5 185q48 90 113.5 163.5t150.5 130.5v354h922v-352q135 -92 224.5 -228t121.5 -301z" />
    <glyph glyph-name="uni231B" unicode="&#x231b;" vert-adv-y="2850" 
d="M1026 540h445q124 -62 176 -123q55 -62 90.5 -157t46.5 -238h-1071q10 143 47 239q17 48 39 86.5t48 68.5q52 60 179 124zM632 -48h1233q-6 175 -42 301q-37 125 -107 206q-72 82 -196 143q-49 24 -82 46.5t-52.5 45.5t-28 48.5t-8.5 54.5t8 54.5t27.5 49t52.5 46.5
t83 47q60 29 108 63t84 73q147 159 154 520h-1234q3 -132 24 -234t56 -175q17 -37 40.5 -70.5t56.5 -64.5t77 -60.5t101 -58.5q43 -21 73.5 -42t50 -43.5t28.5 -48t9 -56.5q0 -108 -124 -171q-150 -74 -211 -134q-62 -60 -97 -132q-36 -75 -58.5 -175t-25.5 -233zM2041 -171
q0 -26 -9.5 -49t-26 -40t-39.5 -26.5t-49 -9.5h-1334q-26 0 -49 9.5t-39.5 26.5t-26 39.5t-9.5 49.5q0 45 27 77t68 43q5 271 92 445.5t265 263.5q48 24 80 42t48 32q31 27 31 65q0 26 -13.5 48.5t-42.5 38.5l-77 41q-94 50 -165 117t-118.5 155.5t-72.5 202.5t-27 258
q-41 11 -68 43t-27 77q0 26 9.5 49t26 40t39.5 26.5t49 9.5h1334q26 0 49 -9.5t39.5 -26.5t26 -39.5t9.5 -49.5q0 -45 -27.5 -78t-69.5 -42q-3 -140 -25.5 -253.5t-66 -202.5t-109.5 -154.5t-154 -110.5q-51 -26 -83 -45t-47 -33q-30 -26 -30 -62q0 -18 5.5 -33t19.5 -30
t39.5 -30t64.5 -33q190 -86 284.5 -263t101.5 -459q42 -9 69.5 -42t27.5 -78z" />
    <glyph glyph-name="uni23E9" unicode="&#x23e9;" vert-adv-y="2850" 
d="M188 76v1287l1011 -584v584l1113 -644l-1113 -643v583z" />
    <glyph glyph-name="uni23EA" unicode="&#x23ea;" vert-adv-y="2850" 
d="M2312 1363v-1287l-1011 583v-583l-1113 643l1113 644v-584z" />
    <glyph glyph-name="uni23EB" unicode="&#x23eb;" vert-adv-y="2850" 
d="M1894 -343h-1288l584 1011h-584l645 1114l643 -1114h-583z" />
    <glyph glyph-name="uni23EC" unicode="&#x23ec;" vert-adv-y="2850" 
d="M606 1782h1288l-583 -1011h583l-643 -1114l-645 1114h584z" />
    <glyph glyph-name="uni23F0" unicode="&#x23f0;" vert-adv-y="2850" 
d="M1509 1644l3 11q48 70 115.5 107t145.5 37q41 0 81.5 -10t82.5 -30q24 20 54 20q18 0 32.5 -7t24.5 -18.5t15.5 -25.5t5.5 -28q0 -17 -6 -29q117 -111 117 -246q0 -67 -31 -134q-29 -63 -46 -63l-11 4l-575 397q-8 5 -8 15zM397 1228q-19 0 -48 64q-29 67 -29 134
q0 137 117 245q-6 12 -6 29q0 14 5.5 28t15.5 25.5t24.5 18.5t32.5 7q32 0 55 -20q42 20 82 30t81 10q162 0 261 -144l4 -11q0 -10 -8 -15l-568 -391q-10 -10 -19 -10zM1806 377q20 0 33.5 -13.5t13.5 -34.5q0 -20 -14 -33t-34 -13q-24 0 -34.5 16t-10.5 36t14.5 31t31.5 11
zM1523 95q0 18 14 33t34 15q17 0 31.5 -13t14.5 -33t-12 -34t-33 -14q-17 0 -33 11.5t-16 34.5zM1251 57q20 0 33 -14t13 -34t-14.5 -33t-31.5 -13q-20 0 -34 13t-14 33t13.5 34t34.5 14zM929 143q17 0 32.5 -14t15.5 -34q0 -23 -14.5 -34.5t-34.5 -11.5q-21 0 -33 14
t-12 34q0 21 14.5 33.5t31.5 12.5zM647 328q0 20 12.5 34.5t34.5 14.5q20 0 33 -13t13 -33q0 -48 -45 -48q-23 0 -35.5 14.5t-12.5 30.5zM609 699q20 0 33.5 -14t13.5 -34t-12 -33.5t-32 -13.5q-22 0 -36.5 13.5t-14.5 33.5q0 17 14 32.5t34 15.5zM697 1019q20 0 32.5 -14
t12.5 -34q0 -22 -14 -34.5t-34 -12.5q-22 0 -34.5 15.5t-12.5 32.5q7 47 50 47zM1853 972q0 -17 -12.5 -32.5t-34.5 -15.5q-20 0 -34 14t-14 34t13.5 33.5t33.5 13.5q21 0 34.5 -15t13.5 -32zM928 1253q20 0 34.5 -12.5t14.5 -34.5q0 -17 -13 -32.5t-35 -15.5
q-17 0 -31.5 12.5t-14.5 34.5q0 20 12.5 34t32.5 14zM1572 1253q20 0 32.5 -14t12.5 -34q0 -21 -14.5 -34t-31.5 -13q-22 0 -35 15.5t-13 32.5q0 24 16 35.5t33 11.5zM1892 699q18 0 32.5 -14t14.5 -34q0 -18 -13.5 -33t-33.5 -15t-34 14t-14 34t14 34t34 14zM1251 603
q20 0 33 14t13 34t-14.5 34t-31.5 14q-20 0 -34 -14t-14 -34q0 -21 15 -34.5t33 -13.5zM1310 1301v-539q32 -16 49.5 -46.5t17.5 -64.5q0 -54 -35 -89.5t-97 -35.5l-139 -243l-106 60l143 245q-10 15 -14 31t-4 33q0 71 64 108v541h121zM2014 651q0 201 -101 379
q-51 90 -121 159t-160 121q-179 104 -381 104q-206 0 -382 -103q-177 -102 -279 -279q-103 -177 -103 -381t102 -382q100 -176 279 -279q176 -103 383 -103q211 0 387 106q89 53 157 123.5t119 159.5q100 178 100 375zM1305 1655v-125q227 -13 419 -138q193 -125 300 -321
q54 -100 81 -204t27 -216q0 -280 -162 -508l54 -258l2 -37q5 -64 -29 -96t-99 -31l-658 5l-657 -5q-63 -1 -96.5 32.5t-33.5 94.5l4 37l59 280q-146 223 -146 486q0 113 26.5 218.5t81.5 205.5q54 100 128.5 179t170.5 140q97 60 200.5 94.5t217.5 41.5v125h-76v124h263
v-124h-77z" />
    <glyph glyph-name="uni23F3" unicode="&#x23f3;" vert-adv-y="2850" 
d="M1281 244h472q15 -47 25.5 -104.5t15.5 -128.5h-1089q3 66 13.5 123t27.5 110h470v551q0 151 -169 237q-113 57 -166 100h735q-25 -22 -59.5 -43t-78.5 -43q-56 -29 -93.5 -56.5t-60.5 -57t-33 -63.5t-10 -74v-551zM634 -47h1231q-4 182 -44 305q-40 122 -105 199
q-33 39 -84 76t-121 72q-84 42 -123 86.5t-39 103.5q0 30 9 56.5t29.5 50t53.5 45.5t81 45q185 89 259 241q38 78 59.5 180t24.5 233h-1231q4 -133 23.5 -236.5t60 -183t106 -138.5t163.5 -103q81 -36 121 -80t40 -110q0 -62 -41 -106t-120 -84q-120 -59 -178 -117
q-60 -60 -96 -133q-36 -74 -55.5 -172t-23.5 -230zM2040 -172q0 -26 -9.5 -48.5t-26 -39t-39 -26t-48.5 -9.5h-1333q-26 0 -48.5 9.5t-39.5 26t-26.5 39t-9.5 48.5q0 45 27 77t69 44q3 133 23 232.5t52 174.5q17 38 35 70.5t39 58.5q21 27 42.5 49t44.5 41q24 20 63 45.5
t96 54.5q30 15 52.5 28.5t37 27t22 29t7.5 35.5q0 18 -5.5 33t-20 30t-40 30t-64.5 33q-51 23 -99.5 56t-93.5 78q-90 88 -139 240.5t-54 358.5q-40 11 -67 43.5t-27 77.5q0 26 9.5 48.5t26.5 39t39.5 26t48.5 9.5h1333q26 0 48.5 -9.5t39 -26t26 -39t9.5 -48.5
q0 -44 -27.5 -78.5t-69.5 -42.5q-5 -280 -92.5 -455t-263.5 -261q-45 -23 -76 -40.5t-49.5 -34t-26.5 -33t-8 -35.5q0 -26 13.5 -48t42.5 -38l75 -40q94 -50 164.5 -115.5t118 -152.5t73 -198.5t29.5 -252.5q42 -9 69.5 -43t27.5 -79z" />
    <glyph glyph-name="uni24C2" unicode="&#x24c2;" vert-adv-y="2850" 
d="M1502 1351h247q23 0 26 -24l93 -1107q1 -9 -7 -17t-19 -8h-230q-24 0 -26 24l-47 470l-178 -476q-6 -18 -24 -18h-172q-19 0 -25 18l-179 476l-45 -470q-3 -24 -26 -24h-232q-28 0 -26 29l93 1103q3 24 26 24h247q20 0 24 -17l229 -742l227 742q6 17 24 17zM1251 -200
q254 0 470 126q110 63 195.5 149.5t148.5 195.5t94.5 226t31.5 244q0 251 -128 471q-63 109 -148.5 194.5t-194.5 148.5q-218 126 -469 126q-253 0 -472 -127q-218 -126 -344 -344q-125 -218 -125 -469q0 -127 31 -244.5t94 -227.5q126 -218 345 -343q219 -126 471 -126z
M1251 1781q278 0 520 -140q241 -139 380 -379q139 -239 139 -521q0 -280 -139 -522q-137 -238 -379 -379q-241 -140 -521 -140q-276 0 -515 136q-238 134 -383 377q-143 244 -143 528q0 143 35.5 275t107.5 253q145 243 385 376q242 136 513 136z" />
    <glyph glyph-name="H18543" unicode="&#x25aa;" vert-adv-y="2850" 
d="M1507 1015v-514h-513v514h513z" />
    <glyph glyph-name="H18551" unicode="&#x25ab;" vert-adv-y="2850" 
d="M1409 599v318h-317v-318h317zM994 1015h513v-513h-513v513z" />
    <glyph glyph-name="uni25B6" unicode="&#x25b6;" vert-adv-y="2850" 
d="M478 1622l1544 -891l-1544 -892v1783z" />
    <glyph glyph-name="uni25C0" unicode="&#x25c0;" vert-adv-y="2850" 
d="M478 731l1544 891v-1783z" />
    <glyph glyph-name="lozenge" unicode="&#x25ca;" vert-adv-y="2850" 
d="M1250 34l417 703l-417 700l-417 -700zM1301 1746l618 -1009l-618 -1008h-104l-616 1005l616 1012h104z" />
    <glyph glyph-name="uni25FB" unicode="&#x25fb;" vert-adv-y="2850" 
d="M1896 118v1293h-1292v-1293h1292zM486 1529h1528v-1529h-1528v1529z" />
    <glyph glyph-name="uni25FC" unicode="&#x25fc;" vert-adv-y="2850" 
d="M2014 1529v-1529h-1528v1529h1528z" />
    <glyph glyph-name="uni25FD" unicode="&#x25fd;" vert-adv-y="2850" 
d="M1573 427v647h-646v-647h646zM810 1192h881v-883h-881v883z" />
    <glyph glyph-name="uni25FE" unicode="&#x25fe;" vert-adv-y="2850" 
d="M1691 1190v-880h-881v880h881z" />
    <glyph glyph-name="uni2600" unicode="&#x2600;" vert-adv-y="2850" 
d="M597 1365l-2 12q0 14 9.5 21.5t20.5 7.5l12 -1l272 -128q18 -6 18 -26q0 -14 -8 -20l-148 -148q-8 -8 -20 -8q-21 0 -28 16zM648 618l-11 1l-282 106q-19 6 -19 27t19 27l293 107q12 0 20.5 -9.5t8.5 -20.5v-208q0 -12 -8.5 -21t-20.5 -9zM927 251q0 -20 -18 -26
l-272 -126l-12 -2q-30 0 -30 28l2 14l126 274q8 16 26 16q14 0 22 -8l148 -148q8 -8 8 -22zM1145 180h209q11 0 20 -9.5t9 -20.5l-2 -11l-104 -282q-6 -19 -27 -19t-27 19l-106 282l-1 10q0 31 29 31zM1901 139l3 -14q0 -11 -8 -19.5t-21 -8.5l-12 2l-274 126q-16 8 -16 26
q0 14 8 22l146 148q10 8 22 8q16 0 26 -16zM2164 752q0 -21 -19 -27l-283 -106l-10 -1q-12 0 -21 8t-9 22v208q0 11 8 20t19 9l13 -2l283 -104q19 -6 19 -27zM1573 1251q0 16 16 26l274 128l12 1q11 0 20 -8t9 -21l-3 -12l-126 -274q-6 -14 -20 -16q-17 0 -28 8l-146 148
q-8 6 -8 20zM1354 1324h-209q-13 0 -21 9.5t-8 20.5l1 9l106 284q6 19 27 19t27 -19l104 -284l2 -9q0 -11 -8.5 -20.5t-20.5 -9.5zM1250 1236q64 0 125 -17.5t115 -50t99 -77t77 -98.5t50 -115t18 -126q0 -98 -39.5 -186.5t-106.5 -155.5t-154.5 -105.5t-183.5 -36.5
q-102 2 -187 35.5t-156 105.5q-72 71 -105.5 156t-35.5 187q-2 96 36.5 184t105.5 154.5t155.5 106t186.5 39.5z" />
    <glyph glyph-name="uni2601" unicode="&#x2601;" vert-adv-y="2850" 
d="M1997 506q68 0 118 48q49 51 49 118q0 68 -49 117q-50 50 -118 50q-26 0 -48 10t-37.5 26t-24 37t-8.5 44q0 35 -12.5 63.5t-36.5 53.5q-24 24 -53 37.5t-63 11.5l-55 -4q-36 -3 -65.5 17.5t-43.5 54.5q-15 36 -39.5 65.5t-55.5 50.5t-67 32t-75 11q-122 0 -200 -96
q-36 -45 -91 -45q-26 0 -54 14q-48 23 -94 23q-76 0 -137 -52q-59 -50 -67 -134q-5 -45 -36 -74.5t-76 -32.5q-95 -6 -158 -72q-64 -69 -64 -160q0 -99 69 -166q68 -68 165 -68h14l12 1q89 0 120 -67q23 -47 56.5 -84t74.5 -63t88.5 -40t98.5 -14q126 0 223 79q30 26 74 26
q39 0 71 -23q69 -52 152 -52q41 0 79 13.5t70.5 38t56.5 58.5t36 75q11 37 42 61.5t71 24.5q22 0 43 -7t45 -7zM2281 672q0 -117 -83 -200t-201 -83q-50 0 -88 13q-35 -121 -134 -195q-100 -76 -221 -76q-126 0 -223 76q-133 -106 -297 -106q-67 0 -129.5 17.5t-120.5 54.5
q-115 70 -174 196l-19 -1h-21q-146 0 -249 103q-102 102 -102 249q0 142 97 242q97 102 236 108q10 121 103 206q91 87 219 87q77 0 148 -37q112 141 291 141q114 0 209 -65q94 -62 137 -167l55 5q58 4 107.5 -19t91.5 -65q84 -83 84 -200q118 0 201 -83t83 -201z" />
    <glyph glyph-name="smileface" unicode="&#x263a;" vert-adv-y="2850" 
d="M1733 616q20 0 34 -12t14 -36q0 -78 -95 -182q-47 -51 -100 -87t-109.5 -58t-114 -32t-112.5 -10q-43 0 -89.5 6.5t-93 20.5t-91.5 35t-84 51t-71.5 64t-55 68t-35 66t-12.5 58q0 20 12 34t36 14q33 0 89 -60q74 -81 174.5 -125.5t220.5 -44.5q238 0 394 170q55 60 89 60
zM1573 742q-59 0 -99 48q-41 49 -41 118q0 70 41 117q43 49 99 49q30 0 55.5 -13t44 -35.5t29 -53t10.5 -64.5q0 -68 -39 -117t-100 -49zM926 742q-59 0 -99 48q-41 49 -41 118q0 70 41 117q43 49 99 49q28 0 53.5 -13t44.5 -35.5t30 -52.5t11 -65q0 -71 -41 -118
q-41 -48 -98 -48zM1250 -88q106 0 205.5 26.5t193.5 78.5q190 106 303 297t113 413q0 215 -109 406q-110 190 -300 300q-191 109 -406 109q-225 0 -416 -115q-189 -112 -295 -302q-104 -186 -104 -398q0 -218 109 -408q108 -190 298 -298q190 -109 408 -109zM1250 1660
q248 0 466 -126q110 -63 194.5 -148.5t147.5 -194.5q125 -214 125 -464q0 -249 -126 -466q-124 -217 -343 -342q-214 -125 -464 -125q-249 0 -466 126q-216 124 -342 342q-125 216 -125 465q0 248 126 466q124 216 342 342q216 125 465 125z" />
    <glyph glyph-name="uni2648" unicode="&#x2648;" vert-adv-y="2850" 
d="M1667 1668q76 1 146.5 -17.5t132.5 -53.5t112.5 -85t87 -111.5t55.5 -134t18 -151.5q0 -76 -27 -164q-27 -86 -70 -140l-212 174q17 26 26.5 65.5t9.5 68.5q0 57 -20.5 104.5t-61.5 88.5q-41 40 -89.5 60.5t-107.5 20.5q-117 0 -199 -82q-80 -83 -80 -196v-1290h-275
v1290q0 115 -83 196q-82 82 -195 82q-115 0 -197 -79q-82 -81 -82 -195q0 -20 3 -40.5t8.5 -38.5t11.5 -32.5t12 -22.5l-213 -174q-43 52 -70 139q-14 43 -20 84t-7 81q-2 74 18 144t57 132t89 113.5t114 88t132.5 56.5t143.5 19q125 -2 231.5 -52t184.5 -137q77 87 184 137
t232 52z" />
    <glyph glyph-name="uni2649" unicode="&#x2649;" vert-adv-y="2850" 
d="M1251 40q181 0 309 128q65 65 96.5 142t33.5 169q1 58 -15 113.5t-45 105t-70 90.5t-90 70.5t-105 45.5t-114 15q-91 -2 -168.5 -32.5t-142.5 -95.5q-128 -129 -128 -312t128 -311t311 -128zM1688 1066q70 -54 125.5 -120t93 -141t57.5 -157t20 -169q0 -199 -99 -370
q-98 -169 -268 -266q-170 -98 -366 -98q-203 0 -372 100q-86 51 -152.5 118t-114.5 150q-49 85 -72.5 175.5t-23.5 190.5q0 177 79 331q41 77 94.5 141t122.5 115q-139 103 -218 260q-78 153 -78 327h296q0 -183 127 -311q128 -129 312 -129q182 0 310 129q129 129 129 311
h294q0 -85 -19 -166.5t-56.5 -157t-93 -142t-127.5 -121.5z" />
    <glyph glyph-name="uni264A" unicode="&#x264a;" vert-adv-y="2850" 
d="M1481 212v1050q-55 -4 -112.5 -6t-117.5 -2q-61 0 -118.5 2t-113.5 6v-1050q56 4 113.5 6t118.5 2q60 0 117.5 -2t112.5 -6zM2069 1651v-302q-63 -16 -136 -29.5t-158 -26.5v-1111q85 -14 158 -27.5t136 -28.5v-304q-204 53 -407 78.5t-411 25.5q-209 0 -412.5 -25.5
t-407.5 -78.5v304q67 15 140 29t154 27v1111q-81 12 -154 26t-140 30v302q97 -25 198 -44t210 -33q109 -13 210.5 -19.5t201.5 -6.5q96 0 196.5 6.5t209.5 19.5q109 14 211.5 32.5t200.5 44.5z" />
    <glyph glyph-name="uni264B" unicode="&#x264b;" vert-adv-y="2850" 
d="M721 760q69 0 117 48q49 51 49 119q0 67 -49 118q-51 49 -117 49q-68 0 -119 -49q-48 -50 -48 -118q0 -71 48 -119t119 -48zM721 466q-92 0 -176.5 37.5t-148.5 100.5t-101.5 146.5t-35.5 176.5q2 100 33.5 189.5t96.5 170.5q129 161 364 258q118 49 242 72.5t256 23.5
q421 0 847 -189l-132 -264q-102 44 -195 74.5t-181 49t-171.5 27t-167.5 8.5q-138 0 -274 -37q94 -62 148 -162t56 -221q1 -92 -36 -176t-100.5 -147.5t-147.5 -100.5t-176 -37zM1780 782q-70 0 -119 -49q-48 -50 -48 -118q0 -71 48 -119t119 -48q68 0 118 48q49 49 49 119
q0 69 -49 118t-118 49zM2241 615q0 -200 -128 -361q-66 -81 -156.5 -146t-209.5 -113q-234 -94 -496 -94q-421 0 -847 189l130 264q373 -159 717 -159q135 0 273 37q-95 63 -149 162.5t-56 220.5q-1 62 16 121t48 110.5t74 94.5t95 73.5t109.5 46.5t118.5 15
q96 -2 176.5 -34.5t149.5 -100.5q135 -137 135 -326z" />
    <glyph glyph-name="uni264C" unicode="&#x264c;" vert-adv-y="2850" 
d="M769 311q62 0 107 45t45 108q0 62 -45 107t-107 45q-63 0 -108 -45t-45 -107q0 -63 45 -108t108 -45zM2014 11l164 -243q-57 -38 -118.5 -56.5t-130.5 -18.5q-100 0 -181 36t-144 109q-125 144 -125 369q0 66 7.5 135.5t21 139t32.5 137.5t43 130q23 61 40 112.5t27.5 97
t15.5 88t5 85.5q0 76 -23 135.5t-65 100.5t-101.5 63t-132.5 22q-133 0 -227 -96t-94 -225q0 -141 76 -275q111 -195 111 -393q0 -186 -131 -317q-130 -130 -315 -130q-189 0 -319 133q-128 131 -128 314q0 186 131 315q134 131 313 131q-32 120 -32 223q0 166 83 307
q42 72 98 128t128 97q72 42 148.5 61.5t157.5 20.5q88 1 168.5 -19.5t149.5 -59t124.5 -94t94.5 -124.5t59.5 -149.5t19.5 -168.5q-2 -107 -28 -229.5t-80 -261.5q-43 -109 -63.5 -216t-20.5 -213t41.5 -165.5t114.5 -59.5q46 0 85 24z" />
    <glyph glyph-name="uni264D" unicode="&#x264d;" vert-adv-y="2850" 
d="M1762 1114q-23 0 -43 -8t-35 -21.5t-23.5 -33t-8.5 -41.5v-588q55 59 96 122.5t68 135t40.5 152.5t13.5 174q0 22 -8.5 42t-23.5 34.5t-34.5 23t-41.5 8.5zM2164 1006q0 -557 -431 -907q78 -51 242 -51v-294q-160 0 -280.5 36.5t-192.5 118.5l-21 23q-98 -54 -207.5 -101
t-234.5 -88l-91 279q116 38 220.5 84t199.5 98q-5 36 -7.5 85t-2.5 111v953q0 23 -8.5 43t-23.5 34.5t-34.5 23t-41.5 8.5q-23 0 -42.5 -8.5t-34.5 -23t-23.5 -34.5t-8.5 -43v-853h-295v853q0 23 -8.5 43t-23.5 34.5t-34.5 23t-41.5 8.5q-23 0 -42.5 -8.5t-34 -23t-23 -34.5
t-8.5 -43v-853h-294v853q0 169 116 285q118 118 286 118q73 0 137.5 -22.5t118.5 -69.5q108 92 256 92q157 0 271 -106q113 -104 130 -257q52 15 111 15q185 0 294 -112q108 -111 108 -290z" />
    <glyph glyph-name="uni264E" unicode="&#x264e;" vert-adv-y="2850" 
d="M418 136h1664v-294h-1664v294zM1844 552h238v-294h-690v305q131 44 213 160t82 253q0 180 -129 308q-128 129 -307 129q-180 0 -309 -129q-128 -128 -128 -308q0 -141 81 -256q81 -113 213 -157v-305h-690v294h238q-136 188 -136 424q0 193 97 364q98 171 266 268
q169 99 368 99q98 0 188 -25t176 -74q85 -49 152 -115t116 -151q98 -172 98 -366q0 -116 -34 -222t-103 -202z" />
    <glyph glyph-name="uni264F" unicode="&#x264f;" vert-adv-y="2850" 
d="M2261 144l-424 -424v277h-110q-173 0 -294 123q-120 123 -120 293v837q0 26 -9.5 48.5t-26 39t-39 25.5t-47.5 9t-47.5 -9t-39 -25.5t-26 -39t-9.5 -48.5v-895h-294v895q0 25 -9.5 47.5t-26 39t-38 26t-46.5 9.5q-53 0 -87.5 -34.5t-34.5 -87.5v-895h-294v895
q0 172 122 294t294 122q151 0 268 -99q117 99 268 99q174 0 294 -122q122 -122 122 -294v-837q0 -25 9.5 -47.5t26 -39t38.5 -26t46 -9.5h110v278z" />
    <glyph glyph-name="uni2650" unicode="&#x2650;" vert-adv-y="2850" 
d="M975 1545h1090v-1090h-275v621l-621 -621l259 -259l-194 -194l-259 260l-346 -347l-194 194l346 346l-259 260l194 193l259 -259l621 621h-621v275z" />
    <glyph glyph-name="uni2651" unicode="&#x2651;" vert-adv-y="2850" 
d="M1712 226q89 0 149 60q62 61 62 151q0 88 -62 150q-60 62 -149 62q-88 0 -150 -62q-62 -60 -62 -150q0 -89 61 -149q59 -62 151 -62zM1712 922q198 0 342 -142q72 -71 107 -156t37 -187q1 -96 -38 -184.5t-106 -156t-156 -107.5t-186 -38q-72 2 -138 20.5t-128 58.5
q-60 -121 -180 -194q-116 -72 -257 -72v275q90 0 152 63q64 64 64 153v901q0 88 -64 152q-63 64 -152 64q-90 0 -153 -64q-63 -63 -63 -152v-719h-275v719q0 88 -64 152t-152 64v275q104 0 195 -40.5t158 -110.5q150 151 354 151q130 0 245 -67q116 -67 181 -180
q65 -116 65 -244v-282q99 48 212 48z" />
    <glyph glyph-name="uni2652" unicode="&#x2652;" vert-adv-y="2850" 
d="M1897 1374l252 -172v-320l-7 -10l-245 170l-323 -223l-321 223l-323 -223l-323 223l-245 -170l-11 17v310l256 175l323 -221l323 221l321 -221zM1574 426l323 223l252 -172v-320l-7 -10l-245 168l-323 -221l-321 221l-323 -221l-323 221l-245 -168l-11 17v309l256 176
l323 -223l323 223z" />
    <glyph glyph-name="uni2653" unicode="&#x2653;" vert-adv-y="2850" 
d="M2115 896v-295h-336q8 -98 26 -198t47 -206t62.5 -198.5t74.5 -171.5h-323q-78 194 -123 386.5t-59 387.5h-483q-14 -195 -59 -387.5t-123 -386.5h-321q79 157 135 365q29 106 47 207.5t26 201.5h-321v295h321q-8 100 -26.5 201.5t-46.5 205.5t-61.5 196t-73.5 171h321
q78 -194 123 -386.5t59 -387.5h483q14 195 59 387.5t123 386.5h323q-39 -78 -73 -169t-63 -196q-58 -212 -74 -409h336z" />
    <glyph glyph-name="spade" unicode="&#x2660;" vert-adv-y="2850" 
d="M2144 600q1 -62 -16 -121.5t-48 -111.5t-74.5 -95.5t-96 -74.5t-111 -48t-120.5 -15q-86 2 -161.5 28.5t-141.5 82.5q9 -57 22.5 -112t31.5 -111q17 -56 33.5 -97.5t30.5 -69.5l15 -32l5 -20q0 -16 -11 -27.5t-28 -11.5h-448q-15 0 -27 11.5t-12 27.5q0 11 5 20l15 32
q14 30 30.5 72t33.5 99q36 112 54 219q-66 -56 -141 -82.5t-160 -28.5q-63 -1 -122.5 16t-112 48.5t-95.5 75t-74 95.5t-48 111t-16 120q2 136 59 272.5t174 279.5t277 274t366 255l17 6l21 -6q403 -241 639 -527q118 -143 175.5 -280.5t59.5 -273.5z" />
    <glyph glyph-name="club" unicode="&#x2663;" vert-adv-y="2850" 
d="M1670 1008l66 5q63 5 122 -10.5t111.5 -46.5t96 -76t74.5 -98.5t48 -113.5t16 -121q-2 -97 -36 -179.5t-103 -151.5q-136 -137 -329 -137q-105 0 -194.5 42t-154.5 115q20 -98 49 -187.5t71 -172.5l6 -19q0 -17 -11.5 -27.5t-28.5 -10.5h-447q-16 0 -28 10.5t-12 27.5
l5 19l16 30q11 24 25 58.5t29 81.5q16 47 29 94.5t23 95.5q-141 -157 -350 -157q-195 0 -331 138q-69 69 -101 151t-34 179q-2 92 35.5 177.5t102 150.5t149.5 103t179 35q20 -1 36 -1.5t30 -3.5q-24 49 -34.5 99t-12.5 103q-2 92 35.5 177t102 150.5t150 104t180.5 36.5
q63 -2 120.5 -16.5t112.5 -46.5q106 -60 171 -172q62 -109 62 -233q0 -107 -46 -202z" />
    <glyph glyph-name="heart" unicode="&#x2665;" vert-adv-y="2850" 
d="M1668 1494q120 0 230 -63q54 -31 96 -73.5t71 -93.5t44.5 -108.5t15.5 -117.5q0 -263 -229 -541q-227 -278 -626 -517q-5 -5 -19 -5t-19 5q-401 240 -630 519q-115 139 -171 273.5t-56 265.5q0 122 60 227q61 103 169 166q54 32 111.5 47.5t117.5 15.5q132 0 245 -72
q112 -71 173 -197q26 61 68 108.5t99 85.5q112 75 250 75z" />
    <glyph glyph-name="diamond" unicode="&#x2666;" vert-adv-y="2850" 
d="M2050 736q0 -14 -8 -24l-762 -974q-11 -16 -30 -16q-20 0 -31 16l-761 974q-8 10 -8 24t8 25l761 974q11 14 31 14q19 0 30 -14l762 -974q8 -11 8 -25z" />
    <glyph glyph-name="uni2668" unicode="&#x2668;" vert-adv-y="2850" 
d="M2177 401q0 -75 -31 -145t-94 -136q-123 -131 -339 -207q-109 -38 -223.5 -56.5t-238.5 -18.5q-125 0 -240 18.5t-224 56.5q-214 76 -339 207q-63 66 -94 136t-31 145q0 124 86 237q88 114 133 114q34 0 34 -33q0 -18 -12 -37q-26 -42 -37.5 -82t-13.5 -78
q-2 -59 25 -115t76 -105.5t118 -91t151.5 -71t176 -45t191.5 -14.5q98 2 189.5 15.5t176.5 43.5q172 59 271 161q51 53 75.5 108t24.5 114q0 38 -12.5 78t-38.5 82q-5 9 -8.5 18t-3.5 19q0 33 33 33q45 0 133 -114q86 -113 86 -237zM1571 535q0 75 -14.5 159t-43.5 178
q-42 135 -42 256q0 87 21.5 152t53.5 116q22 36 55 66.5t66 53t60 35.5t39 13q22 1 22 -20q0 -12 -12 -18q-64 -56 -64 -219q0 -69 13 -155.5t39 -190.5q15 -63 23 -120t8 -109q0 -77 -17 -144.5t-48 -123t-76 -98t-100 -69.5l-8 -1q-7 0 -13.5 5.5t-6.5 13.5l4 14
q41 74 41 206zM1192 537q0 73 -13.5 156t-42.5 179q-21 69 -32 131.5t-11 122.5q0 87 21 153t53 116q17 25 35.5 45.5t39.5 38.5t44.5 34t44 27t36 17.5t22.5 6.5q20 0 20 -20q0 -13 -11 -18q-65 -57 -65 -220q0 -70 13 -156t39 -189q15 -63 23 -120t8 -110q0 -84 -17 -149
t-46 -116q-20 -35 -46.5 -66t-53 -54t-49.5 -36.5t-35 -13.5q-22 0 -22 22l4 11q41 74 41 208zM813 537q0 73 -13.5 156t-42.5 179q-21 69 -32 132t-11 124q0 87 22 152t54 116q22 36 54.5 66.5t65.5 53t60.5 35.5t39.5 13q20 1 20 -19q0 -14 -11 -19q-64 -56 -64 -219
q0 -69 13 -155.5t39 -190.5q32 -128 32 -229q0 -77 -17 -144.5t-48 -123t-76 -98t-100 -69.5l-8 -1q-21 0 -21 19l4 14l8 18q14 30 23 77t9 113z" />
    <glyph glyph-name="uni267B" unicode="&#x267b;" vert-adv-y="2850" 
d="M2065 527q0 -56 -151 -89q-36 -8 -73 -19.5t-75 -11.5q-32 0 -71 67q-20 34 -33 64.5t-21 57.5q-11 32 -25 59.5t-14 60.5q0 17 37.5 40.5t103.5 48.5q67 25 107.5 40.5t45.5 11.5q19 0 36 -18q18 -17 33 -46q7 -15 28.5 -66t57.5 -141q14 -36 14 -59zM2007 400
q29 0 29 -14q0 -9 -7 -23l-48 -92l-38 -63l-21 -38q-22 -41 -41.5 -64.5t-45.5 -28.5q-57 -11 -112 -13.5t-113 -9.5l-21 -3q-53 -6 -52 -38l1 -38q2 -36 -6.5 -54t-23.5 -18q-16 0 -36 17l-69 63q-36 32 -67.5 60.5t-55 53t-37 45t-13.5 36.5q0 18 31 63t90 123l24 33
q31 42 55 63.5t44 21.5q27 0 30 -37q2 -40 4 -62.5t5 -27.5q5 -11 12.5 -16t24.5 -5q28 0 54.5 3t52.5 8l101 18l69 11q81 13 126 19.5t54 6.5zM1140 307q0 -38 -7.5 -101.5t-24.5 -151.5q-6 -32 -19.5 -43.5t-43.5 -11.5q-51 0 -118.5 4.5t-153.5 9.5q-41 2 -61.5 13
t-20.5 35q0 45 12.5 93t31.5 104l14 39q29 87 69 87l249 -26q36 -4 54.5 -16t18.5 -35zM620 128q-8 0 -22 19l-34 48q-13 17 -40 66t-69 128q-9 16 -14.5 31.5t-5.5 32.5q0 33 20 73l73 152q8 17 14 29.5t6 23.5q0 13 -15 22t-32.5 19t-32.5 22t-15 31q0 18 36.5 37.5
t108.5 43.5l118 40q27 9 57 9q18 0 33 -7.5t29 -22.5t33.5 -51t42.5 -95q47 -115 58 -146q10 -31 5 -33q0 -39 -37 -39q-15 0 -52 17q-35 15 -47 15q-16 0 -28.5 -23t-33.5 -78l-49 -128q-46 -118 -69.5 -177t-37.5 -59zM1263 1154q0 -20 -15 -44t-41 -56l-23 -29
q-38 -46 -59 -76.5t-34 -43.5q-13 -12 -23 -18.5t-20 -6.5l-12 3q-32 17 -66.5 42t-75.5 55l-26 19q-34 25 -52.5 44t-18.5 35q-1 36 20 65l40 56l37 59q86 138 124 138q22 0 61.5 -36t108.5 -101l23 -22q52 -48 52 -83zM1136 1412q0 26 44 26h16l79 2h130q26 0 46.5 -1
t34.5 -3q43 -11 108 -111q35 -54 55.5 -84.5t28.5 -38.5q18 -15 32 -15q12 0 40 19q25 17 56 17q32 0 32 -41q0 -20 -6.5 -58.5t-17.5 -95.5t-18.5 -90.5t-9.5 -46.5q-6 -25 -30 -33.5t-48 -8.5q-177 0 -266.5 17t-89.5 46q0 16 14.5 29.5t31.5 27t31.5 27t14.5 28.5
q0 9 -3.5 17t-13 20t-25 29t-39.5 43l-34 37l-188 226q-5 5 -5 16z" />
    <glyph glyph-name="uni267F" unicode="&#x267f;" vert-adv-y="2850" 
d="M1100 1302q-92 0 -156 66q-64 67 -64 156q0 93 63 156q64 64 157 64t158 -65q64 -67 64 -155q0 -90 -66 -156q-32 -32 -70.5 -49t-85.5 -17zM2103 -41q0 -50 -68 -89q-67 -38 -147 -38q-33 0 -56.5 6.5t-40.5 22.5t-28.5 42t-20.5 64l-8 36q-23 97 -42 159t-36 90
q-18 28 -48.5 42.5t-74.5 12.5l-167 -7q-51 -2 -91.5 2.5t-73.5 16.5t-59 31t-49 45q-22 26 -40 57t-32 67q-14 35 -24 74t-17 84t-9.5 109.5t-2.5 152.5q0 137 42 208t116 71q34 0 61.5 -7.5t50 -21.5t42.5 -36t41 -50q69 -98 168 -141q102 -44 249 -71q74 -15 132 -59
q58 -43 58 -93q0 -30 -17 -48.5t-43 -18.5q-53 0 -112 41q-16 10 -95 16q-39 3 -69 7.5t-51 9.5t-45.5 15.5t-53.5 23.5l-46 21q-10 0 -10 -14q1 -46 5.5 -78t12.5 -50q15 -38 46.5 -61.5t88.5 -33.5l63 -11q63 -11 108.5 -27.5t78 -47t53 -78.5t34.5 -122
q18 -97 30.5 -153.5t26.5 -71.5q18 -19 74 -22q45 -3 70.5 -25t25.5 -52zM1363 182q34 0 67.5 1t66.5 4q-24 -206 -181 -348q-78 -72 -170 -105.5t-198 -35.5q-74 -2 -143.5 18t-131.5 57t-113 88t-88 113t-57 132t-18 143q2 101 33 189t97 165q131 155 326 188
q6 -147 37 -252q-105 -23 -171 -105q-66 -83 -66 -185q0 -124 86 -211q44 -44 96.5 -65t112.5 -21q100 0 185 64q84 65 107 176q44 -10 123 -10z" />
    <glyph glyph-name="uni2693" unicode="&#x2693;" vert-adv-y="2850" 
d="M1116 1386q0 -29 10.5 -53.5t28.5 -42.5t42.5 -28t52.5 -10t52.5 10t42.5 28t28.5 42.5t10.5 53.5q0 28 -10.5 52.5t-28.5 42.5t-42.5 28.5t-52.5 10.5t-52.5 -10.5t-42.5 -28.5t-28.5 -42.5t-10.5 -52.5zM2187 336q0 -34 -34 -34q-15 0 -40 25q-25 23 -42 23
q-10 0 -15.5 -4t-9 -10t-5.5 -13t-4 -13q-74 -187 -185 -310q-112 -124 -272 -192q-81 -34 -162.5 -52.5t-167.5 -18.5q-82 0 -162 18.5t-159 50.5q-158 64 -275.5 180.5t-173.5 284.5l-7 20q-19 59 -44 59q-18 0 -41 -23q-24 -25 -41 -25q-34 0 -34 36q0 39 35 146
q38 108 59 136q22 28 56 28q22 0 33 -5q28 -11 62 -32.5t76 -53.5q85 -65 85 -91q0 -31 -53 -31q-55 0 -55 -25q0 -52 131 -186q132 -133 248 -133q103 0 115 137l5 62l29 245q6 25 6 60q0 15 -4.5 28t-10.5 22q-7 10 -25 19.5t-43.5 18t-57 16.5t-65.5 15l-39 8
q-56 12 -56 67q0 43 26 59q25 16 117 16q65 0 102 6.5t55 21.5t22.5 40.5t4.5 63.5q0 24 -6 39.5t-15.5 26.5t-23 18.5t-28.5 15.5q-44 23 -80 54t-62 68.5t-40.5 82t-14.5 94.5q0 127 101 216q100 88 248 88q141 0 245 -86q102 -87 102 -216q0 -114 -54.5 -189t-144.5 -115
q-69 -30 -69 -96q0 -67 13 -89q12 -22 52.5 -33t119.5 -11q42 0 69 -4t43 -13t22.5 -23t6.5 -35q0 -55 -55 -67l-39 -8q-33 -7 -63 -14t-58 -16q-27 -9 -43.5 -17.5t-25.5 -19t-12.5 -23t-3.5 -30.5l39 -367q7 -68 34.5 -102t80.5 -34q63 0 145 50q81 51 158 142
q80 93 75 127q0 16 -12.5 20.5t-40.5 4.5q-55 0 -55 30q0 10 14.5 27.5t38 38t52.5 41.5t57.5 38t53.5 27.5t40 10.5q39 0 67 -49q14 -24 28 -58.5t28 -81.5q29 -92 29 -123z" />
    <glyph glyph-name="uni26A0" unicode="&#x26a0;" vert-adv-y="2850" 
d="M1111 47q0 136 141 136q65 0 101.5 -35t36.5 -101q0 -62 -36 -98.5t-102 -36.5q-29 0 -54.5 7.5t-45 23.5t-30.5 42t-11 62zM1337 402h-172q-12 0 -13 9l-46 676q-2 11 11 11h266q13 0 13 -11l-48 -676q-1 -9 -11 -9zM290 -145h1921l-960 1662zM2371 -206
q0 -23 -17.5 -40t-41.5 -17h-2124q-24 0 -41.5 16t-17.5 41q0 16 8 30l1063 1840q17 29 51 29t50 -29l1062 -1840q8 -14 8 -30z" />
    <glyph glyph-name="uni26A1" unicode="&#x26a1;" vert-adv-y="2850" 
d="M2089 755q0 -14 -10 -20l-1617 -1017l-10 -3q-20 0 -20 20q0 8 5 13l710 772l-722 213q-14 3 -14 19q0 11 9 17l1614 985l11 3q19 0 19 -20q0 -7 -6 -13l-708 -772l724 -182q15 -3 15 -15z" />
    <glyph glyph-name="uni26AA" unicode="&#x26aa;" vert-adv-y="2850" 
d="M1250 646q24 0 45 9t37 25t25 37t9 45t-9 45t-25 37t-37 25t-45 9t-45 -9t-37 -25t-25 -37t-9 -45t9 -45t25 -37t37 -25t45 -9zM1250 996q94 0 164 -70t70 -164q0 -100 -70 -167q-68 -67 -164 -67t-166 68q-68 70 -68 166t67 164q67 70 167 70z" />
    <glyph glyph-name="uni26AB" unicode="&#x26ab;" vert-adv-y="2850" 
d="M1250 997q94 0 164 -70t70 -164q0 -100 -70 -167q-68 -67 -164 -67t-166 68q-68 70 -68 166t67 164q67 70 167 70z" />
    <glyph glyph-name="uni26BD" unicode="&#x26bd;" vert-adv-y="2850" 
d="M1907 75q112 112 182 257t86 315q-51 -52 -104.5 -92.5t-110.5 -70.5q-6 -88 -37 -182q-15 -48 -34 -86.5t-41 -69.5q33 -45 59 -71zM1250 -199q347 0 613 232q-14 15 -29.5 33.5t-30.5 39.5q-59 -32 -156 -52q-49 -9 -94.5 -14t-90.5 -3l-38 1q-139 -114 -304 -164
l33 -67q46 -6 97 -6zM529 1313q-187 -229 -205 -528h20l20 1q1 38 15.5 83.5t42.5 100.5q55 107 97 143l-1 25v27q0 39 3 76t8 72zM1480 1622l29 -1q-64 18 -128.5 27.5t-130.5 9.5h-8l-10 -2q33 -11 58.5 -22t44.5 -20q18 8 116 8h29zM2046 1206q-34 57 -75 107t-89 94
q11 -12 20 -28t17 -36q16 -38 16 -57q28 -17 55.5 -36.5t55.5 -43.5zM1623 909q0 38 -1.5 80.5t-6.5 90.5l-48 26q-83 45 -149.5 79t-116.5 60l-28 13q-110 -26 -209.5 -81.5t-191.5 -141.5q5 -12 5 -33l-5 -251l5 -126q195 -128 420 -167q20 28 39.5 52.5t40.5 44.5
q78 75 152 126q36 25 57.5 38.5t28.5 16.5q5 48 6.5 90.5t1.5 82.5zM1068 -80q91 26 170.5 66.5t149.5 97.5q-36 68 -65 165q-16 49 -26 87t-14 64q-61 11 -122.5 29t-119.5 42t-110.5 52t-95.5 58q-12 -9 -25 -16l-26 -14l-178 -89q5 -81 25 -161t55 -159l22 -15
q48 -33 136.5 -86.5t223.5 -120.5zM1068 1640q-267 -55 -462 -244q-29 -116 -29 -224v-20l1 -18q57 -6 106 -18l101 -26l44 -15q35 37 81 72.5t99.5 66.5t114 56t123.5 42l-2 24v23q0 25 2 54t7 61q10 69 26 100q-101 48 -212 66zM370 727l-48 -1q0 -337 219 -596l78 17
q-32 75 -50.5 152.5t-21.5 158.5q-53 36 -101 103.5t-76 165.5zM1957 550q65 40 119.5 87t101.5 101q0 80 -14.5 157.5t-42.5 153.5q-45 54 -98 100t-115 83q-20 -17 -40 -32.5t-41 -30.5l-85 -59q-34 -23 -67 -34q4 -39 5.5 -78.5t1.5 -81.5q0 -40 -1.5 -84.5t-6.5 -94.5
q76 -22 166 -83q89 -61 117 -104zM1250 1775q277 0 520 -138t384 -384q141 -245 141 -524q0 -278 -142 -524q-72 -123 -167 -218.5t-216 -164.5q-243 -138 -520 -138q-278 0 -521 138q-122 69 -217 164.5t-166 218.5q-72 124 -106.5 254t-34.5 270q0 141 34.5 271.5
t106.5 253.5q142 246 384 383q243 138 520 138z" />
    <glyph glyph-name="uni26BE" unicode="&#x26be;" vert-adv-y="2850" 
d="M1280 104q0 -26 -26 -26q-8 0 -18 5.5t-30 5.5t-45 -12l-12 -4q-25 0 -26 22q-4 18 -11 30.5t-14.5 20.5t-13.5 11.5t-9 4.5q-15 6 -15 23q0 11 6.5 19t17.5 8l13 -2q6 0 33 -25q24 -24 35 -49q10 3 19.5 4t20.5 1q26 0 42.5 -5.5t17.5 -6.5q15 -6 15 -25zM752 1118
q0 -26 -30 -26q-53 8 -88 46q-38 -27 -87 -27q-34 0 -34 26q0 11 8 18.5t19 7.5q51 0 78 33q8 8 19 8q17 0 23 -14q11 -20 31.5 -33t37.5 -13q23 -2 23 -26zM1342 233q0 -11 -8.5 -18t-17.5 -7q-10 0 -19 5t-29 5q-23 0 -45 -12l-13 -5q-23 0 -26 24q-2 17 -9 29t-15 20
t-15 12t-9 6q-15 7 -15 22q0 11 7 19t18 8l12 -3q5 0 14 -5.5t19 -15.5t20 -23.5t16 -29.5l41 6q26 0 41.5 -5.5t18.5 -5.5q14 -8 14 -26zM722 833q0 -12 -9 -19t-20 -7q-3 0 -12.5 1.5t-21.5 6.5t-26.5 14.5t-28.5 25.5q-40 -28 -90 -28q-30 0 -30 27q0 11 7.5 18.5
t18.5 7.5l15 -1q37 0 63 32q7 10 23 10q15 -2 19 -14q16 -23 37 -35.5t32 -12.5q23 -2 23 -26zM617 534q0 -13 -9 -19t-17 -6l-14 3q-45 30 -63 78l-36 -4q-27 0 -44.5 6.5t-19.5 8.5q-15 7 -15 23q0 11 8 18.5t19 7.5q6 0 10.5 -2t9.5 -4t12.5 -4t19.5 -2q21 0 43 11l11 1
q21 0 27 -22q2 -18 8.5 -30.5t13.5 -20.5t13 -12.5t9 -6.5q14 -11 14 -24zM1515 573l-1 -10q11 -4 19.5 -7t16.5 -7q7 -4 16.5 -11.5t17 -15.5t13 -16.5t5.5 -14.5q0 -26 -26 -26q-13 0 -22 11q0 4 -6 10t-16.5 12t-23.5 10.5t-27 4.5q-26 1 -26 26l7 43q0 29 -15 52l-3 11
q0 11 8.5 19t19.5 8q13 0 22 -11q11 -22 16 -42t5 -37v-9zM1759 731l-3 -17q28 -9 54 -32q24 -23 24 -31l3 -12q0 -9 -7.5 -18t-18.5 -9q-14 0 -23 13q-19 38 -70 44q-9 0 -16 8t-7 17q0 11 6 25t6 27q0 25 -7 34.5t-7 18.5q0 11 7.5 20t18.5 9q9 0 16 -7t12.5 -18.5
t8.5 -26t3 -30.5v-15zM737 976q0 -26 -30 -26q-53 8 -88 46q-36 -27 -87 -27q-33 0 -33 26q0 11 7.5 19t18.5 8l10 -1q20 0 36 8t32 25q6 8 18 8q16 0 24 -12q10 -20 31 -34t38 -14q23 -3 23 -26zM774 1225q0 -25 -26 -25l-11 1q-51 31 -68 74q-10 -3 -20 -5t-24 -2
q-73 0 -73 36q0 11 8.5 18.5t17.5 7.5q4 0 6.5 -1.5t7 -3t12 -2.5t21.5 -1q23 0 46 12l14 3q20 0 26 -21q6 -43 48 -65q15 -8 15 -26zM1403 361q0 -11 -7.5 -17.5t-16.5 -6.5q-10 0 -20 4.5t-30 4.5q-23 0 -45 -12l-12 -3q-21 0 -27 22q-8 44 -47 67q-15 6 -15 22
q0 13 8.5 20.5t17.5 7.5l11 -2q3 0 12 -5.5t19 -15.5t20.5 -24t16.5 -30q13 3 23 5t20 2q72 0 72 -39zM684 661q0 -11 -7.5 -19t-18.5 -8q-4 0 -13.5 5.5t-21 16t-23 25t-19.5 33.5l-31 -4q-24 0 -54 10q-28 10 -28 29q0 11 8 19t19 8q9 0 19.5 -6t33.5 -6q11 0 21 2t20 7
l11 3q11 0 18.5 -7t7.5 -16q1 -43 45 -69q13 -7 13 -23zM1398 500l-2 -18q53 -12 84 -55l4 -15q0 -11 -8.5 -19t-17.5 -8q-10 0 -22 12q-2 2 -7 8t-14 12t-22 11.5t-31 5.5q-11 0 -18.5 8t-7.5 19l8 43q0 15 -2.5 24t-6 15.5t-6 11t-2.5 10.5q0 11 6.5 19.5t17.5 8.5
q16 0 23 -13q1 0 5 -6t8.5 -16.5t8 -25t2.5 -32.5zM1883 801l-2 -17q29 -11 53 -33q25 -23 25 -30l2 -12q0 -9 -7.5 -18t-18.5 -9q-13 0 -23 13q-3 4 -8 10.5t-13 13.5t-20.5 12.5t-28.5 7.5q-23 0 -23 25q0 12 6 25.5t6 26.5q0 24 -6.5 33.5t-6.5 20.5q0 10 6.5 19t17.5 9
q20 0 30.5 -22.5t10.5 -59.5v-15zM2109 792q0 -9 -7.5 -17.5t-21.5 -8.5q-10 0 -17 10q-31 29 -69 29h-11q-26 0 -26 26l3 30q0 25 -9 39.5t-10 17.5q-7 7 -7 17q0 11 8 18.5t19 7.5q12 0 20 -9q32 -43 32 -95q19 -3 35 -9.5t28 -14t19 -14.5t7 -9q3 -5 5 -9t2 -9zM1221 36
q26 0 26 -26q0 -11 -8 -19t-19 -8q-46 0 -74 -36q-7 -10 -23 -10q-15 0 -21 13q-10 15 -21.5 23.5t-21.5 13t-17.5 5.5t-9.5 1q-23 3 -23 25q0 29 28 29q46 0 90 -44q17 16 43 24.5t51 8.5zM1633 664l-1 -21q48 -13 78 -49l6 -7l5 -15q0 -11 -7.5 -18.5t-18.5 -7.5
q-15 0 -24 11l-4.5 6t-13.5 12.5t-22.5 12.5t-31.5 6q-26 0 -26 27l7 41q0 25 -13 50l-5 15q0 11 7.5 18.5t18.5 7.5q12 0 18 -6q8 -8 19 -34q12 -30 8 -49zM1180 -194l70 -3q125 -5 240.5 28.5t224.5 96.5q215 124 339 342q124 216 124 462q0 38 -4 80t-12 87
q-24 12 -49 12l-37 -6q-11 0 -19 8t-8 19q0 18 -5 31t-11 22t-12 14t-8 7q-11 9 -11 22q0 11 7.5 18.5t18.5 7.5q18 0 41 -30q24 -33 29 -59h14l37 -4l-32 101q-17 -10 -24 -10q-20 0 -26 18q-6 17 -14.5 28.5t-17.5 18.5t-16 10t-8 3q-18 6 -18 26q0 11 8 18.5t19 7.5
t29.5 -11.5t29.5 -22.5q-26 54 -41 73l-19 2l-23 -2q-11 0 -19.5 7.5t-8.5 18.5q0 22 33 28l-51 66q-3 -4 -13 -4q-11 0 -19.5 7.5t-8.5 18.5q0 10 6 16q-129 131 -298.5 206t-366.5 75q-51 0 -102 -6.5t-102 -17.5q-6 -16 -24 -16q-10 0 -17 7l-56 -18q7 -7 7 -20
q0 -10 -7.5 -18t-18.5 -8q-9 0 -15.5 3.5t-16.5 23.5l-64 -29q12 -36 45 -52q14 -6 14 -24q0 -26 -26 -26l-11 2q-50 29 -68 74q-17 -7 -46.5 -27.5t-74.5 -54.5l18 -1q12 -2 23.5 2t23.5 10l12 3q21 0 26 -21q9 -44 49 -67q15 -6 15 -23q0 -11 -7.5 -19t-18.5 -8
q-20 0 -45 27q-26 28 -36 49q-10 -3 -21 -5t-22 -2q-17 0 -32.5 4t-30.5 11q-69 -64 -124.5 -140t-94.5 -162.5t-59.5 -181.5t-20.5 -197q0 -53 6.5 -105.5t17.5 -104.5l12 2q9 0 19 -5.5t33 -5.5q29 0 42 10l13 3q20 0 26 -24q2 -18 7.5 -30t12.5 -20t13.5 -12.5t10.5 -6.5
q13 -10 13 -25q0 -11 -8 -18t-18 -7l-12 3q-22 11 -37.5 30.5t-26.5 47.5l-35 -4q-23 0 -50 10l23 -73l12 3q11 0 18.5 -7t7.5 -16q2 -27 20 -48q18 -22 26 -22q12 -6 12 -22q0 -28 -28 -28q54 -91 125.5 -165.5t162.5 -134.5q180 -120 398 -147q-27 22 -60 21l-18 -2
q-11 -1 -18.5 8t-7.5 20q0 27 44 27q39 0 76 -20q6 9 15.5 18.5t21.5 18t25 14t27 5.5q11 0 18.5 -7.5t7.5 -18.5q0 -21 -20 -26q-44 -12 -62 -54zM1250 1777q277 0 520 -138t384 -384q141 -245 141 -523q0 -279 -142 -525q-72 -123 -167 -218.5t-216 -164.5
q-243 -138 -520 -138t-521 139t-385 382q-139 242 -139 525q0 279 139 521q70 123 165.5 218t216.5 165q123 72 253 106.5t271 34.5z" />
    <glyph glyph-name="uni26C4" unicode="&#x26c4;" vert-adv-y="2850" 
d="M1889 309q0 119 -62 241q-60 120 -168 201q-49 36 -49 98q0 45 27 78q51 63 76 133.5t27 150.5q1 61 -16.5 119.5t-51 110.5t-79.5 95t-101 74.5t-117 48.5t-126 17q-65 -1 -127 -18t-117 -48t-101 -73.5t-78.5 -94t-50.5 -110t-16 -121.5q2 -75 24 -143.5t70 -130.5
q26 -33 26 -77q0 -58 -59 -106q-49 -41 -84.5 -79t-58.5 -73q-92 -140 -92 -292q0 -115 49.5 -216t140.5 -176t207 -112t256 -37q132 0 247.5 35t207.5 110q92 74 144 175.5t52 219.5zM2164 901q20 0 36 -15t16 -37q0 -23 -21 -41l-257 -199q38 -73 56.5 -147t18.5 -152
q0 -111 -38 -214t-111 -191q-54 -65 -126 -114t-154 -82t-170.5 -49.5t-175.5 -15.5q-117 2 -233 27t-219 87q-76 46 -136 106t-102 130.5t-64 150t-22 165.5q0 167 89 322l-249 223q-18 17 -18 38q0 22 16 37t36 15t34 -12l102 -90l20 73q5 20 18 29.5t31 9.5
q24 0 38 -14.5t14 -36.5l-1 -15l-34 -124l52 -46q25 35 60.5 70t84.5 73q-121 152 -121 349q0 157 84 295q85 140 224 215q72 38 148 58t159 20q165 0 306 -78q143 -79 226 -215t83 -295q0 -202 -130 -362q42 -34 79 -71.5t69 -79.5l67 50l-19 118l-3 20q0 21 16 36.5
t38 15.5q20 0 33.5 -11.5t16.5 -31.5l11 -74l90 69q14 11 32 11zM1268 1056l94 1q14 1 19.5 -5t5.5 -26q0 -34 -6 -40q-3 -3 -14 -6t-28.5 -5t-40 -3t-47.5 -1q-26 0 -60.5 2t-80.5 6q-20 3 -20 43q0 35 16 35zM1436 1302q16 0 31.5 -7.5t27.5 -20t19 -30t7 -38.5
q0 -20 -5.5 -38t-15.5 -32t-24.5 -22.5t-32.5 -8.5q-33 0 -59 27t-26 69q0 20 5.5 38t15.5 32t24.5 22.5t32.5 8.5zM1116 1201q-1 -40 -25 -68t-59 -28q-16 0 -30.5 8t-25 21t-17 30.5t-6.5 36.5q0 42 23 71.5t59 29.5q18 0 33.5 -8.5t26 -22.5t16 -32t5.5 -38z" />
    <glyph glyph-name="uni26C5" unicode="&#x26c5;" vert-adv-y="2850" 
d="M1974 362q64 0 110 46q47 46 47 112q0 51 -37 100q-36 46 -83 46q-26 0 -46.5 -6t-48.5 -6q-18 0 -37 6.5t-34.5 19t-27.5 29.5t-16 38q-6 29 -21 53t-36.5 41t-48 26.5t-55.5 9.5q-28 0 -71 -18q-23 -10 -39.5 -14t-27.5 -4q-24 0 -45 8.5t-36.5 23t-25 34t-11.5 41.5
q-7 86 -72 146t-154 60q-43 0 -74 -9q-15 -5 -27.5 -10t-25 -15t-27.5 -25.5t-34 -39.5q-36 -46 -98 -46l-12 2q-35 0 -67 -11t-59 -30.5t-47.5 -46.5t-32.5 -60q-24 -62 -111 -81q-66 -13 -121 -83q-53 -71 -53 -134q0 -90 66 -156q66 -67 157 -66l52 2q62 2 94 -67
q43 -90 123 -141.5t180 -51.5q122 0 213 76q30 26 74 26q40 0 71 -23q67 -49 145 -49q41 0 78 13t67 36t52 55.5t34 71.5q11 36 42.5 60.5t71.5 24.5q22 0 41.5 -7t43.5 -7zM2009 784q50 0 91.5 -20.5t77.5 -61.5q71 -82 71 -182q0 -113 -82 -195q-82 -80 -193 -80
q-46 0 -85 13q-35 -117 -131 -188q-99 -73 -214 -73q-119 0 -216 73q-124 -103 -287 -103q-129 0 -241 70q-113 69 -168 190l-19 -1h-21q-142 0 -241 98q-100 99 -100 241q0 122 85 224q84 100 207 111q35 103 120 164q88 64 197 64l25 7q48 62 118 99.5t155 37.5
q42 0 80 -9q51 66 126 105.5t165 39.5q151 0 259 -109q106 -108 106 -257q0 -75 -32 -154q41 -53 54 -117q28 7 51.5 10t41.5 3zM1083 1551l-1 7q0 22 22 22l11 -3l197 -115q11 -7 11 -22q0 -8 -9 -15l-121 -100l-14 -4q-18 0 -21 14zM1989 1098l11 -2l205 -100
q12 -6 12 -19q0 -16 -16 -22l-220 -58l-6 -1q-11 0 -17 8.5t-6 16.5l15 157q4 20 22 20zM1808 1391q0 17 15 22l215 74l8 1q8 0 15 -7t7 -15l-3 -11l-115 -197q-7 -11 -17 -11q-13 0 -20 9l-99 121q-6 7 -6 14zM1472 1502l2 9l100 206q6 12 19 12q17 0 22 -16l59 -226
q0 -22 -25 -22l-157 15q-20 6 -20 22z" />
    <glyph glyph-name="uni26CE" unicode="&#x26ce;" vert-adv-y="2850" 
d="M1779 472l-57 4v-276q0 -23 9 -43.5t24 -35.5t35.5 -24t43.5 -9h97v-294h-97q-166 0 -286 119q-120 118 -120 287v352l-360 93v-445q0 -23 9 -43.5t24 -35.5t35.5 -24t43.5 -9h97v-294h-97q-169 0 -287 119q-119 119 -119 287v521q-14 5 -30 6.5t-33 1.5q-65 0 -99 -34.5
t-34 -82.5q0 -50 36 -84l-204 -212q-126 123 -126 296q0 167 119 288q61 62 132 95.5t154 28.5l85 -6v577h294v-647l360 -93v740h294v-819q14 -5 30 -6.5t33 -1.5q62 0 99.5 32.5t37.5 84.5q0 48 -36 84l204 212q126 -123 126 -296q0 -177 -126 -295q-63 -59 -140 -92
t-171 -26z" />
    <glyph glyph-name="uni26D4" unicode="&#x26d4;" vert-adv-y="2850" 
d="M521 541h1457v376h-1457v-376zM1250 1684q255 0 476 -129q221 -128 349 -348q129 -219 129 -477q0 -256 -129 -476q-128 -221 -348 -349q-219 -129 -477 -129q-259 0 -476 128q-219 127 -349 349q-65 110 -96.5 229t-31.5 248t31 247.5t96 228.5q127 219 349 349
q219 129 477 129z" />
    <glyph glyph-name="uni26EA" unicode="&#x26ea;" vert-adv-y="2850" 
d="M1281 474h61q0 29 -16.5 52.5t-44.5 32.5v-85zM1161 474h62v85q-28 -9 -45 -32t-17 -53zM1343 333v81h-62v-81h62zM1161 414v-81h62v81h-62zM1402 474v-169q0 -13 -9 -21.5t-21 -8.5h-240q-12 0 -21 8.5t-9 21.5v169q0 31 11.5 58t32 47.5t47.5 32.5t58 12t58.5 -12
t48 -32.5t32.5 -47.5t12 -58zM1923 -207v554l-339 173v-727h339zM576 347v-554h340v727zM1251 142q31 0 59 -12t48 -32t32 -47t12 -58v-200h82v955h-468v-955h86v200q0 31 11.5 58t32 47t47.5 32t58 12zM2149 417v-101q0 -21 -15.5 -36t-35.5 -15h-9q-2 1 -18.5 8.5
t-46.5 23.5v-554q0 -21 -15 -35.5t-35 -14.5h-1449q-20 0 -34.5 14.5t-14.5 35.5v554l-52 -26l-24 -6q-20 0 -34.5 14.5t-14.5 36.5v101q0 30 26 44l539 283v53l4 22l255 556v316h-153v149h153v134h149v-134h153v-149h-153v-316l256 -556l4 -22v-53l537 -283q28 -16 28 -44z
" />
    <glyph glyph-name="uni26F2" unicode="&#x26f2;" vert-adv-y="2850" 
d="M2431 1054q0 -11 -2.5 -23t-8 -22.5t-15 -17.5t-23.5 -7q-9 0 -22 8.5t-31 24.5q-35 31 -54 31q-34 0 -34 -41l7 -62q0 -26 -17.5 -39t-37.5 -13q-23 0 -38 13.5t-27.5 29.5t-26.5 29.5t-34 13.5q-21 0 -35.5 -14.5t-13.5 -39.5l2 -39q1 -24 -13.5 -39.5t-40.5 -15.5
q-55 0 -100 86q-66 128 -148.5 190t-193.5 62q-110 0 -186 -75l-13 -18q-36 -47 -44 -47q-11 0 -11 17q0 26 10.5 62t33.5 83q22 47 51.5 87.5t65.5 75.5q73 71 164 107t195 36q153 0 310 -86q78 -43 148 -102.5t133 -138.5q50 -63 50 -116zM976 1169q-103 0 -183.5 -51
t-135.5 -158l-22 -43q-45 -86 -101 -86q-26 0 -40.5 15.5t-12.5 39.5l1 38q1 25 -12.5 40t-36.5 15q-21 0 -34 -13.5t-25.5 -29.5t-27.5 -29.5t-39 -13.5q-20 0 -37.5 13t-17.5 39l7 62q0 41 -34 41q-17 0 -51 -31q-38 -33 -55 -33q-14 0 -23.5 7t-15.5 17.5t-8.5 23.5
t-2.5 25q0 51 50 113q128 160 280.5 243.5t310.5 83.5q100 0 195 -35t165 -104q35 -35 63.5 -75t51.5 -87q45 -92 45 -150q0 -17 -11 -17q-10 0 -27 26l-29 39q-75 75 -187 75zM1255 988q82 0 138 -57q57 -59 57 -138h-392q0 82 57 138q58 57 140 57zM951 676q0 28 18 47
t46 19h478q28 0 46 -19t18 -47t-18 -46t-46 -18h-478q-28 0 -46 18t-18 46zM736 564h1030q36 0 60.5 -23.5t24.5 -59.5t-24.5 -60t-60.5 -24q-34 -121 -115 -206t-196 -136q-40 -16 -40 -48q0 -20 16 -37.5t41 -26.5q39 -15 39 -50q0 -24 -18 -39.5t-44 -15.5h-402
q-26 0 -44 15.5t-18 39.5q0 36 37 50q25 10 42 27t17 37q0 30 -41 48q-61 27 -112.5 63t-91 80t-67 94t-40.5 105q-32 3 -54 27t-22 57q0 36 23.5 59.5t59.5 23.5z" />
    <glyph glyph-name="uni26F3" unicode="&#x26f3;" vert-adv-y="2850" 
d="M1430 146q0 139 -137 215q-68 38 -160 57t-211 19q-141 0 -261 -42q-119 -43 -176.5 -117t-57.5 -172q0 -35 10.5 -70.5t30 -68.5t46.5 -62.5t60 -52.5t74 -39.5t85 -27t90 -15t90 -4.5q147 0 260 50q116 52 186 143q71 90 71 187zM906 -347q-333 0 -528 159
q-98 80 -146 188.5t-48 245.5q0 205 149 316.5t446 111.5q102 0 176.5 -9t132 -19.5t103.5 -19.5t91 -9q57 0 92.5 12t63.5 37q29 25 52 64q12 20 76.5 135t180.5 327q3 8 10 8.5t16 1.5l300 647h243l-333 -726q8 -10 8 -18l-2 -10l-238 -546q-27 -63 -58 -143.5t-65 -180.5
q-40 -118 -86 -205t-97 -146q-103 -117 -238.5 -169t-300.5 -52zM1913 114q99 0 169 -71q72 -72 72 -169q0 -98 -72 -170q-70 -71 -169 -71t-170 71t-71 170q0 98 71 169t170 71z" />
    <glyph glyph-name="uni26F5" unicode="&#x26f5;" vert-adv-y="2850" 
d="M976 372l-490 -49q28 151 74 305t112 316q131 320 315 617h5zM2061 372h-951q106 234 106 588q0 390 -181 694v5q178 -41 322 -101.5t256 -140.5t196 -181.5t140 -229.5t84 -285.5t28 -348.5zM370 234h1722q47 0 71.5 -23t24.5 -84q0 -33 -5.5 -76t-16.5 -98
q-21 -110 -40 -147h-1469q-48 31 -92.5 68t-86.5 78l-40 38q-27 26 -50 52.5t-40 51t-26.5 46.5t-9.5 39q0 9 3 18.5t10 17.5t18 13.5t27 5.5z" />
    <glyph glyph-name="uni26FA" unicode="&#x26fa;" vert-adv-y="2850" 
d="M1221 -161l1014 342q-10 27 -28.5 81t-48 124.5t-70.5 152.5t-95.5 165t-123.5 162.5t-154 144t-186.5 110t-221.5 60.5l-12 -74q-32 -195 -53 -512t-21 -756zM1190 1190q-171 0 -350 -118q-180 -116 -327 -348q-148 -234 -248 -543l138 -57q42 137 89 243.5t100 182.5
q105 153 215 153q176 0 176 -334q0 -207 -56 -455l177 -71q0 214 5 409.5t17 378.5q11 183 27 322t37 237zM1309 1320v-20q111 -16 209 -53t185 -91t163 -123.5t142 -150.5q45 -55 86 -115.5t79 -129.5q38 -67 70 -135t58 -138q52 -142 52 -183q0 -38 -22 -68.5t-59 -42.5
l-1071 -363q-11 -3 -20 -5t-19 -2q-24 0 -43 9l-898 363q-34 14 -54 42t-20 61q0 64 106 311q54 124 116 230.5t134 198.5q143 184 324 289q180 104 364 104v396q0 25 17 43t42 18q20 0 35 -12t20 -29l57 -11l335 -51q50 -8 96.5 -15t83 -13.5t61 -11t29.5 -6.5
q33 -9 33 -32q0 -17 -36 -33q-20 -10 -67.5 -27.5t-123.5 -43.5z" />
    <glyph glyph-name="uni26FD" unicode="&#x26fd;" vert-adv-y="2850" 
d="M1301 946v357h-773v-357h773zM1725 1103q0 -86 28 -129.5t75 -43.5q45 0 45 56q0 36 -19 87q-10 27 -18.5 44t-17 26.5t-18 13t-21.5 3.5q-21 0 -37.5 -14.5t-16.5 -42.5zM2166 86q0 -129 -71 -211q-72 -81 -188 -81q-109 0 -179 48t-101 152q-32 104 -32 324
q0 355 -101 456v-1045h-1160v1645q0 118 86 207q86 87 208 87h573q123 0 207 -87q86 -89 86 -207v-429q126 -45 188.5 -197t62.5 -427q0 -94 2.5 -156.5t10.5 -95.5q15 -66 49.5 -96.5t101.5 -30.5q52 0 80.5 37.5t28.5 103.5q0 71 -9 164t-28 208q-36 232 -78 360l-15 -2
h-15q-66 0 -111 17t-73.5 55t-41.5 99.5t-15 150.5q-1 34 5 60.5t19 46.5t33.5 35t49.5 26q38 15 59.5 23t26.5 13l4 23q0 111 -143 269q-21 24 -21 48t20.5 45.5t56.5 21.5q38 0 79 -39.5t86 -109.5q22 -35 41 -77.5t35.5 -89.5t31 -96t28.5 -95l13 -48q21 -73 31 -128.5
t10 -95.5q0 -91 -49 -118q47 -165 82 -393q17 -113 26.5 -205t9.5 -165z" />
    <glyph glyph-name="uni2702" unicode="&#x2702;" vert-adv-y="2850" 
d="M1942 62q0 82 -78 150q-79 70 -164 70q-31 0 -57 -11.5t-45 -32t-29.5 -49.5t-10.5 -64q0 -100 55 -174q53 -75 135 -75q68 0 124 31q15 8 28 24t22 37t14.5 45.5t5.5 48.5zM1195 832q-20 0 -32.5 -12t-12.5 -33q0 -20 12.5 -36t32.5 -16q26 0 38.5 15.5t12.5 32.5
q0 20 -13.5 34.5t-37.5 14.5zM822 125q-1 35 -11.5 64t-29.5 49.5t-44.5 32t-56.5 11.5q-97 0 -165 -71q-68 -73 -68 -167q0 -73 42 -116.5t115 -45.5q49 -1 89.5 20.5t69.5 56.5t44.5 78.5t14.5 87.5zM2206 -237q0 -29 -10 -53.5t-27 -42.5t-39 -28t-47 -10q-59 0 -95 14
t-53 40q-16 27 -31.5 42.5t-33 23.5t-37.5 10t-45 2l-58 -2q-63 -2 -116 27.5t-97 84.5q-44 56 -68.5 128.5t-17.5 162.5l9 134q2 28 -4.5 50t-22 40.5t-40.5 34t-59 31.5q-26 11 -46 26q-11 7 -30 23t-48 39l-67 -54q-14 -12 -85 -47q-51 -24 -77 -59.5t-23 -83.5l10 -134
q7 -94 -21 -168.5t-76 -131.5q-99 -114 -263 -114q-71 0 -126 21t-92.5 59t-56.5 92.5t-19 121.5q0 84 39 159q20 38 47.5 70t66 59t89 50.5t116.5 43.5q26 8 47.5 15t38.5 30q9 12 16.5 25t12.5 29q22 70 78 115q32 25 56.5 46t39.5 37q16 17 34 38.5t38 49.5
q-57 118 -106 241.5t-91 257.5q-41 133 -61.5 226.5t-20.5 150.5q0 47 8.5 80t20.5 33q13 0 51 -78l9 -21q135 -224 227 -375t140 -235l182 306l184 304l11 21q20 38 31 58t19 20q14 0 22 -41q6 -42 6 -72q0 -115 -86 -385q-43 -135 -90.5 -257t-102.5 -234q30 -41 57 -70
t50 -49l62 -52q56 -48 78 -115q7 -25 19 -43q13 -20 24 -28q13 -10 71 -28q125 -37 196 -87q35 -25 64.5 -56.5t50.5 -67.5t32.5 -75t11.5 -80t-7 -83.5t-7 -82.5q0 -14 7 -24t17.5 -16t22.5 -9t23 -3h9q26 0 42.5 -21t16.5 -56z" />
    <glyph glyph-name="uni2705" unicode="&#x2705;" vert-adv-y="2850" 
d="M2100 1252l-1093 -1103l-607 605l152 152l455 -452l941 950z" />
    <glyph glyph-name="uni2708" unicode="&#x2708;" vert-adv-y="2850" 
d="M924 642q0 -13 8.5 -22.5t24.5 -9.5q13 0 26 6.5t23.5 17.5t17 25t6.5 30q0 38 -39 38q-14 0 -26 -8t-21 -20.5t-14.5 -27.5t-5.5 -29zM894 704q0 20 -14.5 28.5t-30.5 8.5q-24 0 -47 -29q-22 -28 -22 -53q0 -40 45 -40q28 0 48 33q10 17 15.5 30t5.5 22zM2273 819
q0 -34 -44 -66q76 -129 76 -179q0 -48 -46 -48q-33 0 -86 36.5t-115 101.5q-89 -38 -192 -70.5t-223 -60.5q158 -455 158 -628q0 -178 -137 -178q-128 0 -298 197q-171 198 -325 527l-171 -6q-160 -5 -291 14.5t-224 56.5t-143 87t-47 106q2 36 23.5 71t59.5 65
q20 15 44 28.5t52 27.5q55 27 65 27q14 -97 111 -180q99 -84 141 -84q18 0 48 32q30 30 30 46q0 14 -8.5 24t-32.5 24q-35 20 -65 46t-53 57.5t-38 67.5t-19 75q124 77 295 77q-9 54 -13 106t-4 105q0 96 15.5 172.5t47.5 134.5q63 117 168 117q47 0 101 -44t111 -132
t116.5 -220t117.5 -309q144 -26 277.5 -52.5t258.5 -53.5q11 12 31 31.5t50 47.5q60 55 105.5 77.5t83.5 22.5q52 0 52 -44q0 -26 -23.5 -75.5t-69.5 -124.5q30 -27 30 -53z" />
    <glyph glyph-name="uni2709" unicode="&#x2709;" vert-adv-y="2850" 
d="M459 1332h1582v-220l-792 -393l-790 393v220zM459 986l790 -394l792 394v-828h-1582v828z" />
    <glyph glyph-name="uni270A" unicode="&#x270a;" vert-adv-y="2850" 
d="M1253 8q126 -1 237 23t203 69t164.5 109t122 143t75.5 172t25 195q0 88 -19 160q-18 73 -94 125q-76 51 -153 52q-19 0 -44.5 3.5t-55 7t-62 6.5t-63.5 3q-179 0 -179 -125q0 -57 38 -98q39 -41 103 -65q32 -13 61 -20t55 -5l17 2q-5 -16 -10.5 -36t-10.5 -45t-6.5 -45
t-1.5 -37l-49 -14q-61 -17 -113 -38t-97 -50q-15 -10 -37 -29.5t-50 -49.5q-39 -41 -59 -41q-33 0 -33 34q0 37 32 106q31 66 50 90l3 7q0 7 -42 15q-51 7 -69 24q-19 -18 -39.5 -36.5t-43 -32.5t-46.5 -23t-51 -9q-21 0 -42.5 3t-45.5 11q-45 13 -63 26q-10 -43 -55 -78
q-21 -17 -42 -26.5t-41 -7.5l-111 8q-23 2 -34 -11t-11 -37q0 -85 98 -198q100 -115 251 -175t338 -62zM600 585q25 0 49 8t42.5 21.5t30 32.5t11.5 42l-4 30l-89 292q-30 97 -125 97q-62 0 -96 -38t-34 -110q0 -52 58 -190q57 -138 83 -161q29 -24 74 -24zM851 1312
q-69 0 -104.5 -42.5t-35.5 -108.5q0 -21 12.5 -71t38.5 -128q51 -156 78 -203q38 -68 112 -68q25 0 47.5 8t39 22.5t26.5 33.5t10 42l-3 25l-79 373q-14 63 -54 90t-88 27zM1234 1442q-66 0 -100 -35t-34 -98l2 -27q16 -153 38.5 -246.5t32.5 -132.5t23.5 -64.5t30 -40.5
t35.5 -21t41 -6q17 0 28 2.5t19 6.5t14.5 9.5t14.5 11.5q-63 57 -63 161q0 74 23 116t70 65l-19 159q-5 37 -19 63.5t-35 43.5t-47.5 25t-54.5 8zM1629 1472q-29 0 -54 -13t-42.5 -34.5t-26.5 -49.5t-7 -59l10 -149q17 3 40 5t53 2q42 0 92 -4.5t109 -12.5l-6 160
q-2 75 -48 115t-120 40zM2234 723q0 -247 -129 -448q-128 -201 -344.5 -299.5t-510.5 -98.5q-102 0 -195 16t-181 49q-173 66 -300 196q-64 66 -108.5 141t-73.5 160l-52 156q-20 59 -34.5 106.5t-22.5 84.5q-8 38 -12.5 75t-4.5 75q0 71 18.5 127t53 95t84 59.5t110.5 20.5
q23 0 38 3t23 27q28 81 93 126t156 45q41 0 71 -8t50 -8q25 0 42 24q83 131 226 131q81 0 157 -47l21 -10q10 0 27 15q85 75 205 75q100 0 179 -64q39 -32 64.5 -69.5t33.5 -82.5l12 -75q7 -44 12 -74.5t11 -50t13.5 -29.5t19.5 -14q55 -19 101 -54t78.5 -87.5t50.5 -123.5
t18 -164z" />
    <glyph glyph-name="uni270B" unicode="&#x270b;" vert-adv-y="2850" 
d="M2211 631q0 50 -38 93q-39 42 -85 42q-72 0 -119 -44q-24 -22 -72 -83t-122 -163q-31 -35 -65 -53.5t-71 -16.5l-81 4q-23 2 -41.5 -2t-34.5 -11q-31 -14 -48 -14q-11 0 -22.5 7t-11.5 20q0 39 134 77l33 5q29 0 41 16t12 50q0 36 -6 105t-20 171q0 109 -4 300t-16 469
q-6 136 -139 136q-28 0 -51 -12t-39 -33t-24.5 -48.5t-8.5 -58.5q0 -20 4.5 -89.5t14.5 -191.5q10 -121 19 -211t17 -151q96 -17 96 -44q0 -17 -29 -23q-14 -3 -22.5 -5t-13.5 -2q-96 -12 -184 -30t-170 -43t-159.5 -57.5t-152.5 -71.5q-29 -20 -41 -20q-22 0 -22 21
q0 23 51 74q-55 127 -99 241t-82 216q-16 45 -52 65.5t-74 20.5q-30 0 -53 -10.5t-38.5 -28t-23.5 -41t-8 -50.5q0 -40 10 -67q5 -14 14 -35t23 -50q13 -28 60 -127.5t131 -273.5q26 -53 51 -123.5t51 -162.5q69 -251 229.5 -373t426.5 -122q177 0 305 70q66 35 125 95.5
t116 146.5l68 78l68 74l205 252q18 23 28 45.5t10 47.5zM703 1555q-33 0 -56.5 -11t-38.5 -30.5t-22 -46t-7 -57.5l4 -38q16 -48 67.5 -190.5t139.5 -385.5q48 32 97.5 57.5t101.5 45.5l-157 558q-15 53 -50.5 75.5t-78.5 22.5zM1050 1722q-58 0 -91 -44t-33 -119
q0 -20 15 -92t47 -199t54.5 -212t35.5 -130q77 18 203 27l-97 652q-5 28 -17.5 50t-31 37t-40.5 22.5t-45 7.5zM2085 922q117 0 200 -85q42 -42 62 -94t20 -112q0 -55 -20 -103t-55 -93l-33 -42q-63 -81 -111.5 -143.5t-86.5 -107.5l-44 -50q-77 -89 -132.5 -151.5
t-93.5 -97.5t-76.5 -65t-80.5 -53q-81 -47 -162 -67.5t-176 -20.5q-288 0 -502 150q-216 148 -294 418q-37 127 -64 208t-47 119q-16 31 -43.5 87t-66.5 139t-67 143.5t-45 99.5q-34 80 -34 155q0 123 78 204q80 82 213 82q11 122 85 195q76 76 194 76q50 0 91 -14
q32 82 98.5 130.5t154.5 48.5q110 0 193 -67q78 84 202 84q122 0 201 -80q80 -79 86 -204q5 -75 8.5 -222.5t7.5 -370.5q3 -279 27 -279q5 0 16 13.5t28 34t41.5 44t57.5 44t75 34t95 13.5z" />
    <glyph glyph-name="uni270C" unicode="&#x270c;" vert-adv-y="2850" 
d="M1907 269q0 98 -74 187t-214 148q-70 29 -132 44.5t-119 15.5q-36 0 -67 -10.5t-54 -28.5t-36 -43t-13 -53q0 -63 57 -108t159 -77q96 -30 140.5 -61t44.5 -73q0 -37 -18 -37q-10 0 -29 10q-109 47 -171 47q-35 0 -65.5 -16t-52 -44.5t-33.5 -67t-10 -84.5l1 -46
q1 -37 -12 -37q-20 0 -38 56q-19 54 -19 107q0 41 12 100l-15 -13q-23 -18 -49.5 -28t-58.5 -10q-48 0 -81 21q-47 -72 -86 -92q-19 -10 -42.5 -14.5t-52.5 -6.5l15 -61q27 -111 139 -170t292 -59q273 0 476 144q206 146 206 360zM749 150q23 0 44.5 7.5t38.5 20t27.5 29.5
t10.5 36q0 17 -9 35l-103 241q-32 73 -104 73q-31 0 -52.5 -10t-34.5 -26.5t-18.5 -38t-5.5 -43.5q0 -23 8 -52t25 -62q34 -64 68 -124q17 -30 31 -47.5t25 -25.5q20 -13 49 -13zM800 676q0 -18 9 -49.5t29 -75.5q20 -45 38 -85t37 -77q40 -73 65 -93q26 -20 64 -20
q20 0 39.5 7t35.5 20t25.5 30t9.5 37l-6 31l-107 312q-29 87 -116 87q-61 0 -92 -33t-31 -91zM853 1515q0 -82 65 -265q32 -92 59.5 -158t48.5 -110q22 -48 35.5 -83.5t18.5 -61.5q2 -12 6.5 -29.5t14.5 -42.5q18 -47 34 -47q7 0 25 10q85 54 186 54q57 0 100 -10t57 -13
q23 -6 55.5 -18t77.5 -29l74 -29q3 5 10 47.5t27 118.5l15 57l13 40q39 112 68 202t48.5 160t29.5 121.5t10 86.5q0 33 -9.5 62t-27.5 50t-44.5 33.5t-61.5 12.5q-75 0 -115 -55q-41 -55 -71 -181q-31 -127 -41 -247q-20 -206 -48 -278q-29 -72 -92 -72t-92 57
q-14 29 -32.5 103t-42.5 195q-11 54 -27 116.5t-36 134.5q-39 141 -81 188q-40 47 -94 47q-163 0 -163 -167zM2050 251q0 -160 -117 -319q-59 -80 -133.5 -138t-162 -96t-186 -56.5t-205.5 -18.5q-180 0 -315 43q-135 42 -213 142t-111 247q-48 68 -83 127t-58 111.5
t-34 100t-11 92.5q0 99 71 170q73 73 183 79q3 52 22 92t47 67.5t62.5 41.5t68.5 14q-23 67 -47.5 135t-53.5 137q-15 35 -28.5 77t-23.5 92t-14.5 88t-4.5 66q0 133 79 212q79 81 208 81q106 0 181 -63q38 -32 67 -76t49 -102q20 -57 37 -118t29 -127q24 -131 36.5 -198
t21.5 -62q10 0 24 117l15 138q26 242 106.5 358t214.5 116q72 0 129.5 -22t97 -61t60.5 -92t21 -115q0 -60 -9 -119t-21 -109t-24 -87t-18 -55q-44 -130 -71 -217.5t-39 -135.5q-9 -38 -19.5 -72t-10.5 -66q0 -41 30 -72q153 -152 153 -347z" />
    <glyph glyph-name="uni270F" unicode="&#x270f;" vert-adv-y="2850" 
d="M511 517l-170 -511q68 -35 115 -113l536 132l3 95q2 43 -1.5 67t-8.5 29q-24 19 -95 19h-26q-148 0 -166 60q-6 22 -15 107q-9 86 -15 95q-5 9 -63 14q-28 2 -51 4t-43 2zM1937 1637l-1147 -1077v-37l7 -147q0 -4 8.5 -8t22 -7t30.5 -4.5t34 -1.5q47 0 144 -20l1153 1056
q-71 75 -134 136.5t-118 109.5zM743 611l1116 1046q-110 -6 -145 -17q-30 -10 -68 -45l-1053 -966q36 -5 75 -5.5t75 -12.5zM2236 1143q0 45 -7 90t-10 93l-1130 -1035q15 -45 15 -212l1069 971q31 29 47 51t16 42zM2372 1244q0 -190 -72 -255l-1111 -1006
q-20 -17 -36 -28.5t-30 -16.5q-110 -37 -248.5 -78t-309.5 -88q-170 -46 -265 -70.5t-116 -24.5q-25 -1 -40.5 15t-15.5 48q0 37 47 184l203 631q17 52 50.5 91t84.5 85l1081 991q83 76 297 76q54 0 103 -20.5t93 -63.5l49 -50l106 -98q26 -24 50.5 -48.5t44.5 -50.5
q35 -45 35 -223z" />
    <glyph glyph-name="uni2712" unicode="&#x2712;" vert-adv-y="2850" 
d="M850 179q-44 37 -83.5 77t-76.5 83q-33 -16 -60 -19q-38 -5 -66 -11t-47 -14q-38 -14 -88 -48q-68 -44 -118 -175q-25 -65 -41 -137t-23 -153l206 207q-8 19 -8 39q0 41 28 67t65 26q19 0 36 -7.5t30 -20.5t20.5 -30t7.5 -36q0 -18 -7.5 -35t-20 -30t-29.5 -20.5
t-36 -7.5q-20 0 -39 8l-207 -206l33 4q65 8 129 22.5t128 37.5q129 48 175 118q22 32 34 56.5t18.5 44t9 36.5t5.5 35.5t8 39.5t17 49zM1427 636l64 64l28 -19q31 -22 54 -33.5t40 -11.5l13 4v-1l-74 -74q-6 -6 -14 -6q-13 0 -34 10l-483 -483l-12 -4q-28 0 -85 41
q-5 -11 -6.5 -22.5t-3.5 -22.5q-5 -41 -16.5 -82.5t-33 -81t-55.5 -76t-85 -68.5q-34 -21 -74 -38t-85 -32t-91 -25t-93 -17q-48 -7 -103 -16.5t-119 -23.5q-31 0 -31 26l5 26q11 54 19.5 100t13.5 85q10 79 28.5 150.5t47.5 136.5q30 65 64.5 110t72.5 71q101 67 208 79
q11 2 23.5 4t23.5 7q-41 59 -41 86l4 12l483 482q-10 21 -10 34q0 8 6 14l72 74l1 -2l-1 -11q0 -40 68 -128q35 -45 74 -87t81 -84l-64 -65zM2074 1507l-624 -625q-48 48 -88.5 92.5t-72.5 86.5q-64 85 -64 122q0 9 5 14l353 353q140 140 278 221q22 -46 75 -112t138 -152z
M1571 779l625 626q23 -19 44.5 -32.5t41.5 -22.5q-40 -67 -95 -136t-126 -140l-355 -355q-6 -4 -13 -4q-37 0 -122 64zM2372 1619q0 -38 -10 -81.5t-31 -91.5q-35 23 -57.5 38.5t-33.5 25.5q-110 94 -180.5 172t-104.5 139q100 42 174 42q101 0 172 -70q71 -68 71 -174z" />
    <glyph glyph-name="uni2714" unicode="&#x2714;" vert-adv-y="2850" 
d="M2100 1252l-1093 -1103l-607 605l152 152l455 -452l941 950z" />
    <glyph glyph-name="uni2716" unicode="&#x2716;" vert-adv-y="2850" 
d="M1880 316q0 -18 -14 -32l-216 -217q-11 -12 -33 -12q-19 0 -31 12l-335 336l-337 -336q-12 -12 -33 -12q-19 0 -31 12l-216 217q-8 8 -11 16t-3 16q0 18 14 31l335 337l-335 336q-14 14 -14 32q0 7 3 15t11 16l216 218q13 13 31 13q8 0 16.5 -2.5t16.5 -10.5l337 -335
l335 335q13 13 31 13q20 0 33 -13l216 -218q14 -13 14 -31t-14 -32l-335 -336l335 -337q14 -13 14 -31z" />
    <glyph glyph-name="uni2728" unicode="&#x2728;" vert-adv-y="2850" 
d="M1245 -148q74 110 175 191q-105 82 -175 188q-76 -109 -177 -188q102 -79 177 -191zM1245 553q27 -86 60 -153.5t71 -118.5q38 -52 88 -97t112 -83l94 -58l-94 -59q-122 -76 -199 -180q-75 -101 -132 -273q-69 190 -143 284q-75 98 -189 169l-94 59l94 58
q60 37 106.5 79.5t84.5 90.5q38 49 73 118.5t68 163.5zM1842 378q47 60 104 110.5t126 95.5q-69 45 -126 96t-104 111q-51 -61 -108 -113t-123 -94q66 -42 123 -94t108 -112zM2240 646l126 -62l-126 -61q-69 -35 -128 -75.5t-107 -88.5q-97 -98 -164 -255q-32 78 -71.5 140
t-88.5 112t-108 91t-130 76l-125 61l125 62q72 35 130.5 76.5t106.5 92t88 112t74 137.5q29 -70 66 -129.5t85 -111t109 -95.5t138 -82zM431 1059q273 -195 428 -453q85 134 191.5 246.5t237.5 206.5q-128 90 -234.5 202t-194.5 251q-38 -63 -85 -123.5t-104 -121.5
t-116.5 -112t-122.5 -96zM859 237q-32 85 -63.5 152t-62.5 120t-66.5 101.5t-77.5 95.5q-83 95 -165 161q-42 35 -114 82.5t-176 109.5l112 67q106 63 198 140t169 170t138.5 203.5t108.5 241.5q47 -132 109.5 -243t139 -204t167.5 -169.5t196 -138.5l113 -67l-113 -67
q-107 -63 -198.5 -140t-168 -170t-138 -203.5t-108.5 -241.5z" />
    <glyph glyph-name="uni2733" unicode="&#x2733;" vert-adv-y="2850" 
d="M2114 850q92 0 141.5 -33.5t49.5 -99.5t-50 -99.5t-141 -33.5q-59 0 -731 78l222 -176q162 -129 249 -200t101 -85q78 -78 78 -147q0 -26 -10 -47.5t-26.5 -37.5t-38 -25t-45.5 -9q-37 0 -70 17q-17 10 -35.5 23t-35.5 31q-18 18 -134 162t-333 416q78 -671 78 -730
q0 -92 -33.5 -142.5t-98.5 -50.5q-63 0 -98 49.5t-35 143.5q0 59 78 730q-130 -163 -219.5 -274t-140.5 -174q-100 -124 -134 -152q-33 -28 -65.5 -40.5t-49.5 -8.5q-23 0 -44 9.5t-38 26t-27 38t-10 46.5q0 68 78 146l125 104l447 357q-671 -78 -731 -78q-91 0 -141.5 33.5
t-50.5 99.5t49 99.5t143 33.5q60 0 731 -78l-222 176q-107 86 -188 150.5t-136 110.5q-107 92 -104 170q2 24 9.5 44.5t24.5 39.5q36 36 84 36q42 0 86 -28q47 -31 120 -118q38 -45 138 -170t266 -333q-78 670 -78 730q0 92 33.5 142.5t99.5 50.5t99 -49.5t33 -143.5
q0 -60 -78 -730l359 448l102 124q35 42 73.5 59.5t74.5 17.5q25 0 46.5 -9.5t37.5 -26t25.5 -38t9.5 -46.5q0 -68 -78 -146q-8 -8 -56 -48t-138 -112l-378 -301q672 78 731 78z" />
    <glyph glyph-name="uni2734" unicode="&#x2734;" vert-adv-y="2850" 
d="M2358 744q0 -11 -7.5 -18.5t-18.5 -7.5q-466 0 -793 -94q85 -152 208.5 -308t285.5 -320q8 -6 8 -18q0 -8 -7 -16.5t-19 -8.5q-5 0 -9 2t-9 5q-321 325 -628 494q-93 -336 -93 -792q0 -11 -7.5 -18.5t-18.5 -7.5q-26 0 -26 26q0 465 -94 792q-301 -167 -628 -494
q-7 -7 -18 -7q-25 0 -25 25q0 11 7 18q327 327 494 628q-327 94 -792 94q-11 0 -18.5 7.5t-7.5 18.5t7.5 18.5t18.5 7.5q465 0 792 94q-84 152 -206.5 308t-287.5 319q-7 7 -7 18q0 26 25 26q6 0 18 -7q168 -166 324 -289.5t304 -204.5q94 327 94 792q0 11 7.5 18.5
t18.5 7.5t18.5 -7.5t7.5 -18.5q0 -456 93 -792q301 167 628 494q5 3 9 5t9 2q11 0 18.5 -7.5t7.5 -18.5q0 -10 -8 -18q-322 -322 -494 -627q327 -94 793 -94q11 0 18.5 -7.5t7.5 -18.5z" />
    <glyph glyph-name="uni2744" unicode="&#x2744;" vert-adv-y="2850" 
d="M2025 796h215q22 0 22 -22v-93q0 -22 -22 -22h-215l168 -168q7 -7 7 -16q0 -8 -7 -15l-65 -66q-9 -7 -15 -7l-17 7l-265 265h-415l293 -292h376q22 0 22 -24v-91q0 -22 -22 -22h-238l152 -152q5 -5 5 -16q0 -13 -5 -15l-66 -66q-7 -7 -16 -7q-8 0 -15 7l-152 152v-240
q0 -8 -7 -15t-15 -7h-93q-23 0 -23 22v377l-293 292v-414l265 -266q6 -5 6 -16q0 -10 -6 -15l-65 -66q-7 -7 -15 -7q-10 0 -17 7l-168 169v-215q0 -22 -22 -22h-93q-22 0 -22 22v215l-169 -169q-7 -7 -15 -7q-12 0 -15 7l-67 66q-7 6 -7 15l7 16l266 266v414l-294 -292v-377
q0 -22 -22 -22h-93q-9 0 -15.5 7t-6.5 15v240l-151 -152q-9 -7 -17 -7t-15 7l-66 66q-6 6 -6 15q0 10 6 16l152 152h-239q-22 0 -22 22v91q0 24 22 24h376l293 292h-415l-265 -265q-7 -7 -15 -7l-17 7l-65 66q-7 7 -7 15q0 9 7 16l169 168h-216q-22 0 -22 22v93q0 22 22 22
h216l-169 170q-7 7 -7 15q0 9 7 16l65 66q6 5 15 5q12 0 17 -5l265 -267h415l-293 294h-376q-8 0 -15 7t-7 15v93q0 22 22 22h239l-152 152q-6 6 -6 16q0 9 6 15l66 66q7 7 15 7t17 -7l151 -152v240q0 8 6.5 15t15.5 7h93q22 0 22 -22v-377l294 -292v414l-266 266
q-7 6 -7 16q0 9 7 15l67 66q2 5 13 5q12 0 17 -5l169 -169v215q0 22 22 22h93q22 0 22 -22v-215l168 169q7 7 17 7q8 0 15 -7l65 -66q6 -5 6 -15q0 -11 -6 -16l-265 -266v-414l293 292v377q0 22 23 22h93q8 0 15 -7t7 -15v-240l152 152q7 7 15 7l16 -7l66 -66q5 -3 5 -15
q0 -11 -5 -16l-152 -152h238q22 0 22 -22v-93q0 -22 -22 -22h-376l-293 -294h415l265 267q5 5 17 5q9 0 15 -5l65 -66q7 -7 7 -16q0 -8 -7 -15z" />
    <glyph glyph-name="uni2747" unicode="&#x2747;" vert-adv-y="2850" 
d="M931 471q13 0 22.5 -9.5t9.5 -22.5l-6 -17l-105 -147q-118 -163 -184 -254t-83 -108q-59 -59 -126 -59q-22 0 -42.5 9t-36 24t-25 35t-9.5 43q0 26 13 55t37 57q12 14 78.5 64.5t187.5 139.5t184 135t70 51q15 7 15 4zM2154 -34q0 -21 -9 -41t-24.5 -36t-36.5 -25.5
t-45 -9.5q-65 0 -124 59q-11 11 -50.5 62.5t-105.5 143.5l-172 241l-46 64q-4 8 -4 15q0 13 9.5 22.5t22.5 9.5q8 0 18 -7l146 -105q322 -233 358 -270q63 -62 63 -123zM346 1483q0 22 9 42.5t25 36t36 24.5t43 9q46 0 75 -19t51 -41q17 -17 83.5 -107t183.5 -254l105 -148
l6 -17q0 -13 -9.5 -22.5t-22.5 -9.5q-9 0 -15 3l-190 138q-93 68 -171.5 128t-145.5 113q-63 62 -63 124zM1569 977q-14 0 -23 9.5t-9 22.5q0 11 6 17q8 14 52.5 77t127.5 178q84 115 131 177.5t61 76.5q60 60 124 60q46 0 81 -35q34 -34 34 -78q0 -61 -63 -123
q-5 -5 -42.5 -33.5t-107.5 -81.5q-69 -53 -121 -91t-87 -64l-146 -106q-6 -6 -18 -6zM1056 717q0 -42 -73 -82q-35 -19 -95 -37t-144 -35q-167 -36 -302 -36q-65 0 -119 13.5t-92 39t-59 61t-21 80.5q0 96 72.5 147.5t216.5 51.5q36 0 78 -4t90 -11q49 -8 92 -17t82 -19
q59 -15 110.5 -31.5t89.5 -35t58 -39.5t16 -46zM2058 920q141 0 216 -53t75 -144q0 -45 -20.5 -81.5t-58.5 -62t-92 -39t-120 -13.5q-77 0 -157 10t-165 30t-137 34.5t-74 24.5q-42 17 -64.5 41.5t-18.5 49.5q0 79 209 134q70 19 118.5 30.5t76.5 16.5q57 10 106.5 16
t105.5 6zM1446 -89q0 -65 -14 -117.5t-39.5 -90t-61.5 -58t-80 -20.5q-96 0 -147 77t-51 214q0 140 60 377q61 238 142 238q45 0 81.5 -67.5t66.5 -210.5q30 -141 36 -214q3 -38 5 -69.5t2 -58.5zM1053 1532q0 140 51 215.5t147 75.5q44 0 80 -20t61.5 -57.5t39.5 -90
t14 -118.5q0 -67 -10.5 -147t-30.5 -176q-41 -190 -73 -244q-32 -53 -77 -53q-21 0 -40.5 15.5t-36.5 43.5t-31.5 66t-25.5 83q-17 70 -29 118.5t-17 76.5q-10 57 -16 106.5t-6 105.5zM1113 721q0 56 44 97t104 41q31 0 57.5 -10.5t46 -29.5t30.5 -45t11 -57
q0 -29 -11 -55.5t-30.5 -46.5t-46 -32t-57.5 -12q-30 0 -56.5 10.5t-47.5 33.5q-44 44 -44 106z" />
    <glyph glyph-name="uni274C" unicode="&#x274c;" vert-adv-y="2850" 
d="M1986 219q0 -23 -16 -39l-169 -167q-10 -10 -20 -14t-19 -4q-22 0 -40 18l-472 472l-472 -472q-17 -18 -41 -18q-22 0 -40 18l-167 167q-16 16 -16 39q0 24 16 40l472 472l-472 472q-16 16 -16 40q0 21 16 39l167 169q16 16 40 16t41 -16l472 -472l472 472q16 16 40 16
q23 0 39 -16l169 -169q16 -16 16 -39q0 -24 -16 -40l-474 -472l474 -472q16 -16 16 -40z" />
    <glyph glyph-name="uni274E" unicode="&#x274e;" vert-adv-y="2850" 
d="M1970 261l-473 472l473 472q17 17 17 39q0 23 -17 40l-168 168q-17 17 -40 17q-22 0 -39 -17l-472 -472l-472 472q-17 17 -41 17q-23 0 -40 -17l-167 -168q-16 -16 -16 -40q0 -23 16 -39l472 -472l-472 -472q-16 -16 -16 -40t16 -39l167 -169q16 -16 40 -16t41 16
l472 474l472 -474q16 -16 39 -16q24 0 40 16l168 169q17 15 17 39q0 23 -17 40zM305 1737h1891q23 0 40 -17.5t17 -41.5v-1890q0 -24 -17 -41t-40 -17h-1891q-23 0 -40.5 17t-17.5 41v1890q0 24 17.5 41.5t40.5 17.5z" />
    <glyph glyph-name="uni2753" unicode="&#x2753;" vert-adv-y="2850" 
d="M989 48q0 53 15.5 90.5t43 61.5t65.5 35t83 11q98 0 150 -52t52 -146q0 -92 -54 -145.5t-148 -53.5q-96 0 -151.5 50.5t-55.5 148.5zM1336 447h-308v86q0 108 45 192q44 82 164 178q45 35 75 61t45 44q31 35 44.5 72.5t13.5 88.5q0 66 -45.5 110t-136.5 44
q-81 0 -173.5 -34t-191.5 -83l-119 257q59 33 122 60.5t125.5 46.5t123.5 29.5t117 10.5q242 0 378 -112q136 -114 136 -312q0 -89 -24 -156q-13 -34 -31 -66.5t-43 -62.5q-25 -29 -65 -65.5t-94 -80.5q-44 -35 -71 -60t-40 -39q-24 -29 -35.5 -60t-11.5 -79v-70z" />
    <glyph glyph-name="uni2754" unicode="&#x2754;" vert-adv-y="2850" 
d="M1073 536v-47h228v31q0 73 28 123q29 50 146 146q60 49 100 85.5t60 62.5q42 53 62 111.5t20 141.5q0 89 -31 160t-91.5 120.5t-149 76t-203.5 26.5q-203 0 -436 -122l86 -189q216 103 346 103q103 0 162 -50.5t59 -141.5q0 -85 -35 -143q-17 -30 -56 -68t-101 -87
q-57 -45 -95 -85.5t-58 -79.5q-41 -79 -41 -174zM1381 520v-110h-387v126q0 114 47 205q25 47 69 95t109 101q100 80 122 109t31 59t9 68q0 50 -34 82.5t-109 31.5q-36 0 -75.5 -8.5t-81.5 -22.5q-42 -15 -98 -39.5t-128 -59.5l-152 326q299 169 539 169q257 0 405 -124
q75 -63 112.5 -146t37.5 -192q0 -137 -59 -238q-29 -51 -82.5 -106.5t-132.5 -117.5q-49 -39 -79 -68t-41 -46q-12 -17 -17 -41t-5 -53zM1201 210q-166 0 -166 -158q0 -44 12.5 -74.5t34.5 -49.5t52 -27.5t65 -8.5q81 0 123 42.5t42 117.5q0 158 -163 158zM1201 -186
q-115 0 -180.5 61.5t-65.5 176.5t66 175.5t178 60.5q116 0 180.5 -62t64.5 -174q0 -54 -16.5 -98t-48 -75t-76.5 -48t-102 -17z" />
    <glyph glyph-name="uni2755" unicode="&#x2755;" vert-adv-y="2850" 
d="M1251 213q-167 0 -167 -158q0 -160 165 -160q82 0 124.5 41t42.5 119q0 158 -165 158zM1251 -183q-115 0 -179.5 62t-64.5 176q0 60 17.5 104.5t49.5 74t76.5 44t98.5 14.5q114 0 179.5 -62.5t65.5 -174.5q0 -55 -16.5 -99t-48 -75t-76.5 -47.5t-102 -16.5zM1078 1556
l65 -941h212l66 941h-343zM1376 536h-253q-22 0 -38 15t-18 35l-69 992q-1 13 4 23.5t13 18t18 12t21 4.5h392q24 0 41 -18t15 -40l-69 -992q-2 -20 -18.5 -35t-38.5 -15z" />
    <glyph glyph-name="uni2757" unicode="&#x2757;" vert-adv-y="2850" 
d="M1045 57q0 198 207 198q98 0 150.5 -51.5t52.5 -146.5t-52.5 -146t-150.5 -51q-99 0 -153 51t-54 146zM1377 578h-254q-15 0 -16 14l-70 992q0 4 5 9.5t13 5.5h391q17 0 17 -15l-69 -992q0 -8 -5 -11t-12 -3z" />
    <glyph glyph-name="uni2764" unicode="&#x2764;" vert-adv-y="2850" 
d="M1734 1542q104 2 200.5 -37t169.5 -106.5t116 -156t41 -184.5q-2 -72 -15.5 -138.5t-42.5 -128.5q-55 -122 -166 -224q-56 -51 -139.5 -111.5t-196.5 -130.5q-157 -99 -258.5 -188.5t-155.5 -181.5q-16 -27 -38 -27q-21 0 -39 30q-53 91 -154 180t-260 188
q-222 138 -334 241t-166 224t-57 267q-1 63 17.5 124t53 115t82.5 99.5t107 78t126 50.5t139 17q160 -2 290 -81q133 -79 196 -214q62 135 194 214q67 41 139 60t151 21z" />
    <glyph glyph-name="uni2795" unicode="&#x2795;" vert-adv-y="2850" 
d="M2149 850v-237q0 -23 -16.5 -39.5t-39.5 -16.5h-613q-24 0 -40 -16.5t-16 -39.5v-612q0 -23 -16.5 -40t-39.5 -17h-237q-23 0 -39.5 17t-16.5 40v612q0 23 -16.5 39.5t-39.5 16.5h-612q-23 0 -39.5 16.5t-16.5 39.5v237q0 23 16.5 39.5t39.5 16.5h612q23 0 39.5 16.5
t16.5 39.5v612q0 23 16.5 40t39.5 17h237q23 0 39.5 -17t16.5 -40v-612q0 -23 16 -39.5t40 -16.5h613q23 0 39.5 -16.5t16.5 -39.5z" />
    <glyph glyph-name="uni2796" unicode="&#x2796;" vert-adv-y="2850" 
d="M407 908h1686q23 0 39.5 -16.5t16.5 -39.5v-237q0 -23 -16.5 -39.5t-39.5 -16.5h-1686q-23 0 -39.5 16.5t-16.5 39.5v237q0 23 16.5 39.5t39.5 16.5z" />
    <glyph glyph-name="uni2797" unicode="&#x2797;" vert-adv-y="2850" 
d="M407 907h1686q23 0 39.5 -16.5t16.5 -39.5v-237q0 -23 -16.5 -39.5t-39.5 -16.5h-1686q-23 0 -39.5 16.5t-16.5 39.5v237q0 23 16.5 39.5t39.5 16.5zM1250 286q47 0 85 -17t70 -49q63 -65 63 -152q0 -91 -65 -154q-62 -63 -153 -63t-153 63q-63 62 -63 154q0 87 63 152
q32 32 70 49t83 17zM1250 1180q-90 0 -153 63t-63 155q0 91 63 153q64 64 153 64t153 -64q65 -63 65 -153t-65 -155q-63 -63 -153 -63z" />
    <glyph glyph-name="uni27A1" unicode="&#x27a1;" vert-adv-y="2850" 
d="M1221 1375l875 -643l-875 -642v401h-817v479h817v405z" />
    <glyph glyph-name="uni27B0" unicode="&#x27b0;" vert-adv-y="2850" 
d="M1249 345q119 0 187.5 72t68.5 203q0 254 -254 388q-256 -133 -256 -387q0 -63 18 -114t51 -87t80 -55.5t105 -19.5zM1251 1297q132 51 269.5 76t285.5 25q224 0 430 -56v-276l-33 11q-33 11 -77 20t-100 18q-108 18 -221 18q-65 0 -126.5 -5.5t-120.5 -16.5
q211 -196 211 -490q0 -240 -143 -391q-143 -149 -374 -149q-234 0 -376 148q-144 148 -144 392q0 290 210 490q-59 11 -120.5 16.5t-126.5 5.5q-109 0 -221 -18q-56 -8 -99.5 -18t-75.5 -20l-35 -11v276q206 56 430 56q293 0 557 -101z" />
    <glyph glyph-name="uni27BF" unicode="&#x27bf;" vert-adv-y="2850" 
d="M1788 337q114 0 179.5 68.5t65.5 195.5q0 240 -244 369q-244 -124 -244 -369q0 -60 16.5 -108.5t47.5 -83t76 -53.5t103 -19zM708 337q115 0 180 68.5t65 195.5q0 240 -243 369q-244 -124 -244 -369q0 -60 16.5 -108.5t47.5 -83t76 -53.5t102 -19zM1794 1252
q248 94 526 94h37l35 -1v-256l-34 2h-35q-63 0 -122 -5.5t-114 -16.5q201 -194 201 -470q0 -229 -141 -373t-357 -144q-217 0 -358 144t-141 375q0 289 218 483q-126 34 -259 34t-259 -34q218 -195 218 -487q0 -223 -141 -370q-140 -145 -356 -145q-218 0 -359 144
q-141 142 -141 373q0 276 201 470q-110 22 -237 22h-34l-34 -2v256l35 1h37q278 0 524 -94q128 59 268.5 90.5t277.5 31.5q279 0 544 -122z" />
    <glyph glyph-name="uni2934" unicode="&#x2934;" vert-adv-y="2850" 
d="M1437 847v-183q0 -177 -59 -316q-60 -140 -177 -231.5t-269 -120.5l-192 356q38 0 77 8t79 26q41 18 72.5 47t53 65.5t32.5 78.5t11 85v185h-515l701 710l699 -710h-513z" />
    <glyph glyph-name="uni2935" unicode="&#x2935;" vert-adv-y="2850" 
d="M1437 889v-183h513l-699 -710l-701 710h515v185q0 91 -46 167t-125 109q-80 34 -154 34l192 356q75 -14 142 -45t126 -77q119 -92 178 -229.5t59 -316.5z" />
    <glyph glyph-name="uni2B05" unicode="&#x2b05;" vert-adv-y="2850" 
d="M404 732l875 643v-405h817v-479h-817v-401z" />
    <glyph glyph-name="uni2B06" unicode="&#x2b06;" vert-adv-y="2850" 
d="M1249 1578l643 -876h-405v-817h-478v817h-401z" />
    <glyph glyph-name="uni2B07" unicode="&#x2b07;" vert-adv-y="2850" 
d="M1892 761l-643 -876l-641 876h401v817h478v-817h405z" />
    <glyph glyph-name="uni2B1B" unicode="&#x2b1b;" vert-adv-y="2850" 
d="M123 1923h2252q24 0 40 -16.5t16 -39.5v-2252q0 -24 -16 -39.5t-40 -15.5h-2252q-23 0 -38.5 15.5t-15.5 39.5v2252q0 23 15.5 39.5t38.5 16.5z" />
    <glyph glyph-name="uni2B1C" unicode="&#x2b1c;" vert-adv-y="2850" 
d="M2293 -304v2088h-2087v-2088h2087zM123 1922h2252q24 0 40 -16.5t16 -39.5v-2252q0 -24 -16 -39.5t-40 -15.5h-2252q-23 0 -38.5 15.5t-15.5 39.5v2252q0 23 15.5 39.5t38.5 16.5z" />
    <glyph glyph-name="uni2B50" unicode="&#x2b50;" vert-adv-y="2850" 
d="M1494 636l306 254l-400 32l-149 365l-150 -365l-398 -32l305 -254l-96 -391l339 214l340 -214zM2130 981q0 -19 -15 -36l-444 -368l140 -568l1 -11q0 -17 -14 -31t-31 -14q-14 0 -25 8l-491 311l-492 -311q-11 -8 -25 -8q-17 0 -31 12.5t-14 32.5l141 579l-443 368
q-17 14 -17 36q0 41 43 45l578 46l218 531q12 29 42 29t41 -29l219 -531l579 -46q20 -2 30 -13.5t10 -31.5z" />
    <glyph glyph-name="uni2B55" unicode="&#x2b55;" vert-adv-y="2850" 
d="M1249 -59q212 0 394 105q183 106 289 290q107 184 107 394q0 106 -26.5 203.5t-79.5 189.5q-104 182 -290 288q-185 107 -394 107q-212 0 -395 -107q-184 -107 -289 -290q-52 -92 -78.5 -188.5t-26.5 -202.5q0 -213 105 -394q107 -183 290 -290q183 -105 394 -105z
M1249 1675q258 0 478 -130q219 -129 343 -347q126 -221 126 -468q0 -250 -127 -472q-126 -218 -345 -346q-218 -127 -475 -127q-255 0 -472 126q-214 124 -344 343q-66 109 -97.5 227.5t-31.5 248.5q0 259 127 473q129 217 345 345q215 127 473 127z" />
    <glyph glyph-name="uni3030" unicode="&#x3030;" vert-adv-y="2850" 
d="M2234 866l91 -259q-178 -124 -329 -124q-45 0 -85 9t-75 30l-77 47q-82 50 -151 75t-128 25q-144 0 -281 -77q-36 -21 -66.5 -35.5t-57.5 -24t-52.5 -14t-51.5 -4.5q-43 0 -81 12t-74 29.5t-71 38t-72 38t-77.5 29.5t-85.5 12q-37 0 -69.5 -7.5t-61 -19.5t-53.5 -26.5
t-47 -28.5l-104 221q163 164 349 164q50 0 94 -12t83 -29.5t74.5 -38.5t68.5 -38.5t65 -29.5t65 -12q39 0 74.5 12t71 29.5t72.5 38.5t80 38.5t94 29.5t114 12q113 0 301 -114q137 -85 221 -85q93 0 232 89z" />
    <glyph glyph-name="uni303D" unicode="&#x303d;" vert-adv-y="2850" 
d="M2133 78q0 -7 -7 -14l-269 -278q-5 -5 -14 -5q-41 0 -200 199q-80 100 -143.5 216t-111 243.5t-77 265t-40.5 281.5l-176 -207q-24 -28 -54 -41t-65 -13q-29 0 -54 9t-45 25t-34 38t-20 49l-83 348l-172 -166q-5 -5 -12 -5q-10 0 -17 7l-168 219l-4 12q0 9 5 14l334 313
q34 32 67 46.5t67 14.5q53 0 86.5 -32.5t50.5 -98.5l79 -302l244 266q76 84 148 84q66 0 102.5 -45.5t36.5 -132.5v-92q0 -191 33.5 -358t101 -314.5t168 -279.5t235.5 -253q8 -6 8 -13z" />
    <glyph glyph-name="uni3297" unicode="&#x3297;" vert-adv-y="2850" 
d="M1185 641q0 -11 -7 -18l-105 -105q-6 -9 -17 -9t-17 9l-69 68v-487q0 -25 -24 -25h-195q-9 0 -16.5 7t-7.5 18v528l-103 -100q-5 -5 -18 -5q-10 0 -16 7l-120 125q-7 9 -7 14q0 16 7 22l307 293h-225q-24 0 -24 24v175q0 10 7 17.5t17 7.5h175v159q0 11 7.5 17.5
t16.5 6.5h195q24 0 24 -24v-159h121q11 0 18.5 -7.5t7.5 -17.5v-175q0 -11 -9 -17l-131 -125l203 -208q5 -5 5 -16zM1389 871h258q10 0 10 8v242q0 9 -10 9h-258q-10 0 -10 -9v-242q0 -8 10 -8zM1872 275l23 2q26 1 26 -25v-157q0 -20 -18.5 -24.5t-60.5 -4.5
q-53 0 -95.5 13t-74 35t-51.5 49t-28 56q-11 28 -21.5 72t-19.5 106q-10 63 -14 130.5t-6 141.5h-46q-4 -128 -29 -235q-12 -53 -26 -101t-33 -93.5t-43 -91t-56 -93.5q-8 -9 -20 -9l-11 2l-146 77q-14 8 -14 22q0 8 7 15q1 1 12.5 16.5t28 44.5t36 72t37 99t30 125
t15.5 150h-86q-25 0 -25 25v613q0 25 25 25h661q24 0 24 -25v-613q0 -25 -24 -25h-104q1 -29 5 -89t14 -150q5 -50 12.5 -81.5t18.5 -45.5t30.5 -22t46.5 -6zM1249 -262q271 0 504 138q232 138 361 367q128 228 128 488q0 265 -132 495q-67 117 -157.5 207t-206.5 157
q-229 133 -497 133q-261 0 -489 -130q-229 -130 -366 -360q-136 -232 -136 -502q0 -133 32.5 -256.5t99.5 -238.5q135 -231 361 -364q230 -134 498 -134zM1249 1802q287 0 535 -143q250 -145 393 -392q143 -246 143 -536t-143 -536q-143 -248 -391 -392q-250 -143 -537 -143
q-285 0 -535 143q-248 144 -391 392q-143 246 -143 536q0 288 143 535q72 125 169 223t222 170q250 143 535 143z" />
    <glyph glyph-name="uni3299" unicode="&#x3299;" vert-adv-y="2850" 
d="M1166 578v190q0 25 24 25h128q23 0 23 -25v-190q0 -25 -23 -25h-128q-24 0 -24 25zM1940 746l38 -234v-5q0 -16 -19 -22l-126 -22q-24 0 -27 20l-40 234q0 23 21 29l124 21q26 0 29 -21zM1268 1256l5 14l60 111q6 13 22 13l11 -2l208 -114q13 -7 13 -23l-3 -11l-60 -111
q-6 -13 -22 -13l-12 2l-208 114q-14 11 -14 20zM1944 326q0 -2 -2 -11.5t-7 -24t-12.5 -32t-19.5 -35.5q-37 -57 -93 -88t-143 -28q-74 2 -127.5 29.5t-87.5 86.5q-73 -79 -155 -132l-12 -3q-12 0 -19 8l-110 123q-5 6 -5 17q0 13 12 22q63 39 119 94.5t105 128.5
q-18 112 -34 249.5t-28 305.5q-3 24 21 26l162 14q25 2 27 -22l21 -182q27 123 45 282q0 9 8.5 15.5t16.5 6.5l6 -2l156 -44q20 -5 18 -26q-6 -83 -22 -169.5t-39 -177.5q-49 -181 -136 -326q4 -30 10 -51.5t16 -36t26 -21t40 -6.5q33 0 50.5 24.5t27.5 66.5q8 19 24 19
l14 -4l116 -78q11 -8 11 -18zM1190 483l2 -9q0 -17 -12 -23l-102 -51l-11 -1q-15 0 -22 13l-32 73v-394q0 -25 -25 -25h-160q-25 0 -25 25v375l-95 -196q-4 -14 -24 -14l-9 3l-136 66q-13 6 -13 22l2 11l225 458h-153q-25 0 -25 24v145q0 26 25 26h203v73l-127 -40l-8 -1
q-19 0 -23 16l-48 155l-2 7q0 17 18 23l465 146l9 2q17 0 23 -18l48 -153l1 -8q0 -21 -18 -22l-128 -41v-139h142q25 0 25 -26v-145q0 -24 -25 -24h-118zM1249 -262q271 0 504 138q232 138 361 367q128 228 128 488q0 265 -132 495q-67 117 -157.5 207t-206.5 157
q-229 133 -497 133q-261 0 -489 -130q-229 -130 -366 -360q-136 -232 -136 -502q0 -133 32.5 -256.5t99.5 -238.5q135 -231 361 -364q230 -134 498 -134zM1249 1802q287 0 535 -143q250 -145 393 -392q143 -246 143 -536t-143 -536q-143 -248 -391 -392q-250 -143 -537 -143
q-285 0 -535 143q-248 144 -391 392q-143 246 -143 536q0 288 143 535q72 125 169 223t222 170q250 143 535 143z" />
    <glyph glyph-name="uni0023_20E3" unicode="&#xe023;" vert-adv-y="2850" 
d="M1361 863h-200l-31 -218h199zM2028 1544l152 153l-9 2h-1843q-14 0 -23.5 -10t-9.5 -23v-1843q0 -12 10 -23l153 154q-25 28 -25 62v1457q0 36 26 61.5t62 25.5h1457q31 0 50 -16zM1673 1097h161q18 0 18 -18v-199q0 -17 -18 -17h-194l-32 -218h144q18 0 18 -18v-198
q0 -16 -18 -16h-176l-36 -245q-1 -14 -15 -14h-248q-15 0 -15 18l35 241h-200l-34 -245q-3 -14 -17 -14h-246q-16 0 -16 18l34 241h-154q-16 0 -16 16v198q0 18 16 18h187l31 218h-135q-17 0 -17 17v199q0 18 17 18h168l30 213q1 14 16 14h247q15 0 15 -15v-4l-29 -208h200
l30 213q1 14 16 14h246q15 0 15 -15v-4zM514 1473v-1457q0 -7 7 -7h1457q8 0 8 7v1457q0 7 -8 7h-1457q-7 0 -7 -7zM328 1778h1843q23 0 43.5 -9t35.5 -24t24 -35.5t9 -43.5v-1843q0 -23 -9 -43t-24 -35t-35.5 -24t-43.5 -9h-1843q-23 0 -43 9t-35 24t-24 35t-9 43v1843
q0 23 9 43.5t24 35.5t35 24t43 9z" />
    <glyph glyph-name="uni0030_20E3" unicode="&#xe030;" vert-adv-y="2850" 
d="M1236 430q48 0 87 24t66 67.5t42 105.5t15 139q0 76 -14.5 136t-43.5 107q-56 93 -152 93q-97 0 -152 -93q-27 -47 -41.5 -107.5t-14.5 -135.5q0 -76 15 -138t42 -106t65.5 -68t85.5 -24zM1236 1403q241 0 386 -172q145 -173 145 -465t-145 -464q-146 -173 -386 -173
q-241 0 -385 174q-144 172 -144 463q0 290 144 463q144 174 385 174zM2028 1545l152 152l-9 3h-1843q-14 0 -23.5 -9.5t-9.5 -23.5v-1843q0 -13 10 -23l153 156q-25 25 -25 60v1457q0 18 7 34t19 28t28 19t34 7h1457q27 0 50 -17zM514 1474v-1457q0 -8 7 -8h1457q8 0 8 8
v1457q0 7 -8 7h-1457q-7 0 -7 -7zM328 1778h1843q23 0 43.5 -9t35.5 -24t24 -35.5t9 -42.5v-1843q0 -23 -9 -43.5t-24 -35.5t-35.5 -24t-43.5 -9h-1843q-23 0 -43 9t-35 24t-24 35.5t-9 43.5v1843q0 22 9 42.5t24 35.5t35 24t43 9z" />
    <glyph glyph-name="uni0031_20E3" unicode="&#xe031;" vert-adv-y="2850" 
d="M1398 399h94q18 0 18 -18v-228q0 -18 -18 -18h-484q-18 0 -18 18v228q0 18 18 18h93v666l-120 -35l-5 -2q-19 0 -19 20v239q0 15 14 18l406 86q21 0 21 -17v-975zM2028 1544l152 153l-9 2h-1843q-14 0 -23.5 -9.5t-9.5 -23.5v-1843q0 -12 10 -22l153 155q-25 25 -25 60
v1457q0 37 26 62.5t62 25.5h1457q30 0 50 -17zM514 1473v-1457q0 -7 7 -7h1457q8 0 8 7v1457q0 7 -8 7h-1457q-7 0 -7 -7zM328 1777h1843q23 0 43.5 -9t35.5 -24t24 -35t9 -43v-1843q0 -23 -9 -43t-24 -35t-35.5 -24t-43.5 -9h-1843q-23 0 -43 9t-35 24t-24 35t-9 43v1843
q0 23 9 43t24 35t35 24t43 9z" />
    <glyph glyph-name="uni0032_20E3" unicode="&#xe032;" vert-adv-y="2850" 
d="M1214 453h440q17 0 17 -17v-226q0 -8 -5 -13.5t-12 -5.5h-767q-7 0 -12 5.5t-5 13.5v235q0 12 9 17q209 124 327 245q119 119 119 216q0 27 -10.5 51.5t-29 43t-44 30t-54.5 11.5q-105 0 -250 -124l-15 -4q-8 1 -13 8q-113 185 -113 189q0 9 5 14q3 6 21 22.5t50 42.5
q33 27 65 48t63 38q62 33 127.5 53.5t130.5 20.5q73 0 141 -26.5t131 -81.5q126 -108 126 -265q0 -69 -23.5 -132.5t-65.5 -116.5q-20 -26 -56 -60.5t-89 -79.5q-102 -87 -208 -152zM2028 1545l152 153l-9 2h-1843q-14 0 -23.5 -9.5t-9.5 -23.5v-1843q0 -13 10 -23l153 154
q-25 28 -25 62v1457q0 18 7 34t19 28t28 19t34 7h1457q30 0 50 -17zM514 1474v-1457q0 -7 7 -7h1457q8 0 8 7v1457q0 7 -8 7h-1457q-7 0 -7 -7zM328 1778h1843q23 0 43.5 -9t35.5 -24t24 -35t9 -43v-1843q0 -23 -9 -43t-24 -35t-35.5 -24t-43.5 -9h-1843q-23 0 -43 9t-35 24
t-24 35t-9 43v1843q0 23 9 43t24 35t35 24t43 9z" />
    <glyph glyph-name="uni0033_20E3" unicode="&#xe033;" vert-adv-y="2850" 
d="M1500 769q88 -46 135 -121t49 -170q1 -78 -34.5 -146t-96.5 -117.5t-142 -77.5t-171 -27q-63 0 -121.5 16t-110 40t-94 52t-72.5 54t-47 45.5t-17 26.5l3 11l113 165q4 7 13 7l13 -4q31 -26 66 -49t75 -41q79 -36 141 -36q58 0 101 41q43 43 43 95q0 22 -13 44t-37 41.5
t-57 35.5t-72 27q-14 1 -14 16v145q0 15 14 16q85 28 137.5 72t52.5 94q0 52 -40 92q-38 38 -89 38q-97 0 -230 -103l-13 -4l-13 7l-113 166l-3 9l3 11q45 65 168 116q61 26 119.5 37.5t115.5 13.5q78 2 151 -28t129.5 -80.5t90 -114.5t32.5 -131q-2 -81 -42 -152t-123 -132
zM2028 1545l152 153l-9 2h-1843q-14 0 -23.5 -9.5t-9.5 -23.5v-1843q0 -12 10 -23l153 156q-25 25 -25 60v1457q0 18 7 34t19 28.5t28 19.5t34 7h1457q27 0 50 -18zM514 1474v-1457q0 -7 7 -7h1457q8 0 8 7v1457q0 8 -8 8h-1457q-7 0 -7 -8zM328 1778h1843q23 0 43.5 -9
t35.5 -24t24 -35t9 -43v-1843q0 -23 -9 -43t-24 -35t-35.5 -24t-43.5 -9h-1843q-23 0 -43 9t-35 24t-24 35t-9 43v1843q0 23 9 43t24 35t35 24t43 9z" />
    <glyph glyph-name="uni0034_20E3" unicode="&#xe034;" vert-adv-y="2850" 
d="M1234 875l-191 -293h191v293zM1532 582h208q18 0 18 -16v-214q0 -17 -18 -17h-208v-214q0 -16 -18 -16h-264q-16 0 -16 16v214h-487q-18 0 -18 17v214l3 8l504 778v2q0 7 14 7h264q5 0 15 -10l3 -8v-761zM2028 1544l152 153l-9 3h-1843q-14 0 -23.5 -10.5t-9.5 -23.5
v-1843q0 -12 10 -23l153 156q-25 25 -25 60v1457q0 18 7 34t19 28.5t28 19.5t34 7h1457q27 0 50 -18zM521 9h1457q8 0 8 7v1457q0 8 -8 8h-1457q-7 0 -7 -8v-1457q2 -7 7 -7zM328 1778h1843q23 0 43.5 -9t35.5 -24t24 -35.5t9 -43.5v-1843q0 -23 -9 -43t-24 -35t-35.5 -24
t-43.5 -9h-1843q-23 0 -43 9t-35 24t-24 35t-9 43v1843q0 23 9 43.5t24 35.5t35 24t43 9z" />
    <glyph glyph-name="uni0035_20E3" unicode="&#xe035;" vert-adv-y="2850" 
d="M2028 1544l152 153l-9 2h-1843q-14 0 -23.5 -9.5t-9.5 -23.5v-1843q0 -12 10 -23l153 154q-25 28 -25 62v1457q0 18 7 34t19 28t28 19t34 7h1457q30 0 50 -17zM1198 1132l-18 -195q111 -3 199.5 -34t157.5 -88q137 -113 137 -298q0 -116 -68 -208q-67 -93 -178 -142
q-109 -50 -214 -50q-52 0 -102.5 8t-117.5 31q-33 11 -65.5 24t-65.5 30q-66 33 -69 41q-1 5 -1 7v3l67 212q2 11 15 11l10 -3q53 -34 134 -53q79 -21 152 -21q186 0 186 132q0 62 -75.5 95t-218.5 33q-21 0 -47.5 -1t-59.5 -4t-54.5 -5.5t-30.5 -4.5q-20 0 -20 19l61 697
q1 16 18 16h689q18 0 18 -18v-217q0 -17 -18 -17h-421zM514 1473v-1457q0 -7 7 -7h1457q8 0 8 7v1457q0 8 -8 8h-1457q-7 0 -7 -8zM328 1777h1843q23 0 43.5 -9t35.5 -24t24 -35t9 -43v-1843q0 -23 -9 -43t-24 -35t-35.5 -24t-43.5 -9h-1843q-23 0 -43 9t-35 24t-24 35
t-9 43v1843q0 23 9 43t24 35t35 24t43 9z" />
    <glyph glyph-name="uni0036_20E3" unicode="&#xe036;" vert-adv-y="2850" 
d="M1420 522q0 39 -14.5 72t-40 57.5t-60.5 38t-77 13.5t-77 -13.5t-60.5 -38t-39.5 -57.5t-14 -72t14 -72t39.5 -57.5t60.5 -38t77 -13.5t77 13.5t60.5 38t40 57.5t14.5 72zM1228 949q212 0 349 -121q138 -120 138 -306q0 -187 -138 -308q-138 -120 -349 -120
q-233 0 -364 137t-131 380q0 181 70 345q35 84 80.5 154t99.5 130q108 119 199 171l39 23l7 2q9 0 14 -6l163 -165l4 -11q0 -10 -7 -15q-183 -133 -278 -298q25 4 50.5 6t53.5 2zM2028 1545l152 152l-9 3h-1843q-14 0 -23.5 -9.5t-9.5 -23.5v-1843q0 -12 10 -23l153 156
q-25 25 -25 60v1457q0 18 7 34t19 28t28 19t34 7h1457q30 0 50 -17zM514 1474v-1457q0 -7 7 -7h1457q8 0 8 7v1457q0 7 -8 7h-1457q-7 0 -7 -7zM328 1778h1843q23 0 43.5 -9t35.5 -24t24 -35.5t9 -42.5v-1843q0 -23 -9 -43.5t-24 -35.5t-35.5 -24t-43.5 -9h-1843
q-23 0 -43 9t-35 24t-24 35.5t-9 43.5v1843q0 22 9 42.5t24 35.5t35 24t43 9z" />
    <glyph glyph-name="uni0037_20E3" unicode="&#xe037;" vert-adv-y="2850" 
d="M2028 1546l152 152l-9 3h-1843q-14 0 -23.5 -9.5t-9.5 -23.5v-1843q0 -12 10 -23l153 156q-25 25 -25 60v1457q0 18 7 34t19 28t28 19t34 7h1457q30 0 50 -17zM1730 1336l3 -17l-458 -1200q-5 -10 -15 -10h-305q-17 0 -17 16l1 7l368 968h-549q-17 0 -17 17v209
q0 16 17 16h958q9 0 14 -6zM514 1475v-1457q0 -7 7 -7h1457q8 0 8 7v1457q0 7 -8 7h-1457q-7 0 -7 -7zM328 1779h1843q23 0 43.5 -9t35.5 -24t24 -35.5t9 -42.5v-1843q0 -23 -9 -43.5t-24 -35.5t-35.5 -24t-43.5 -9h-1843q-23 0 -43 9t-35 24t-24 35.5t-9 43.5v1843
q0 22 9 42.5t24 35.5t35 24t43 9z" />
    <glyph glyph-name="uni0038_20E3" unicode="&#xe038;" vert-adv-y="2850" 
d="M1235 669q-39 0 -72 -13t-57.5 -35.5t-38 -54t-13.5 -67.5q0 -37 13.5 -68.5t38 -54t57.5 -35.5t72 -13t72 13t57 36t37 54.5t13 67.5q0 35 -13 66t-37 54t-57 36.5t-72 13.5zM1223 900q37 0 69 10.5t55 30t36 48t13 64.5q0 33 -12 61t-33.5 48t-51 31.5t-64.5 11.5
t-65 -11.5t-52 -31.5t-34 -48t-12 -61q0 -67 45 -109q46 -44 106 -44zM1543 804q150 -117 150 -305q0 -177 -130 -290q-128 -112 -328 -112q-198 0 -328 112q-132 112 -132 290q0 188 152 305q-105 100 -105 249q0 156 116 259q117 102 297 102t297 -102q116 -103 116 -259
q0 -147 -105 -249zM2028 1544l152 153l-9 2h-1843q-14 0 -23.5 -9.5t-9.5 -23.5v-1843q0 -12 10 -22l153 155q-25 25 -25 60v1457q0 37 26 62.5t62 25.5h1457q30 0 50 -17zM514 1473v-1457q0 -7 7 -7h1457q8 0 8 7v1457q0 7 -8 7h-1457q-7 0 -7 -7zM328 1777h1843
q23 0 43.5 -9t35.5 -24t24 -35t9 -43v-1843q0 -23 -9 -43t-24 -35t-35.5 -24t-43.5 -9h-1843q-23 0 -43 9t-35 24t-24 35t-9 43v1843q0 23 9 43t24 35t35 24t43 9z" />
    <glyph glyph-name="uni0039_20E3" unicode="&#xe039;" vert-adv-y="2850" 
d="M1437 979q0 39 -14 72t-39.5 57.5t-60.5 38t-77 13.5t-77 -13.5t-60.5 -38t-40 -57.5t-14.5 -72t14.5 -72t40 -57.5t60.5 -38t77 -13.5t77 13.5t60.5 38t39.5 57.5t14 72zM2028 1545l152 152l-9 2h-1843q-14 0 -23.5 -10t-9.5 -23v-1843q0 -12 10 -22l153 155
q-25 25 -25 60v1457q0 37 26 62t62 25h1457q27 0 50 -15zM1733 956q0 -119 -19 -208.5t-48 -159.5q-14 -35 -34.5 -72t-46.5 -76t-50 -71t-46 -56q-44 -50 -101.5 -98t-111.5 -81q-54 -34 -90 -50t-47 -20q-8 0 -13 7l-143 184l-4 10q0 14 10 15q12 0 75 44q66 45 129 102
t114 129l-61 -3q-106 -5 -193 27.5t-156 92.5q-138 121 -138 307q0 187 138 306q139 121 349 121q214 0 351 -126q136 -126 136 -324zM514 1473v-1457q0 -7 7 -7h1457q8 0 8 7v1457q0 7 -8 7h-1457q-7 0 -7 -7zM328 1778h1843q23 0 43.5 -9t35.5 -24t24 -35.5t9 -43.5v-1843
q0 -23 -9 -43t-24 -35t-35.5 -24t-43.5 -9h-1843q-23 0 -43 9t-35 24t-24 35t-9 43v1843q0 23 9 43.5t24 35.5t35 24t43 9z" />
    <glyph glyph-name="uniFEFF" unicode="&#xfeff;" vert-adv-y="2850" 
 />
    <glyph glyph-name="uniFFFC" unicode="&#xfffc;" vert-adv-y="2850" 
d="M1765 256v140q30 -5 53 -8t40 -3q118 0 118 118v549h171v-544q0 -129 -71 -197t-202 -68q-83 0 -109 13zM1396 601h-96v-211h101q67 0 92.5 29.5t25.5 80.5q0 101 -123 101zM1300 912v-177h90q63 0 87.5 23t24.5 67q0 47 -27.5 67t-93.5 20h-81zM1132 251v801h235
q74 0 130.5 -10.5t94.5 -35t57.5 -63.5t19.5 -96q0 -67 -30.5 -113.5t-92.5 -57.5v-5q147 -29 147 -188q0 -55 -19.5 -98t-55.5 -73t-87.5 -45.5t-115.5 -15.5h-283zM658 382q185 0 185 270q0 268 -185 268q-184 0 -184 -268q0 -270 184 -270zM658 240q-87 0 -153.5 28
t-112 81t-69 129.5t-23.5 173.5q0 199 92 305t266 106q174 1 266.5 -106t92.5 -305q0 -97 -23.5 -173.5t-69 -129.5t-112.5 -81t-154 -28zM2550 751v-372h-149v372h149zM102 1288v-371h-152v371h152zM102 751v-372h-152v372h152zM1973 1716h-373v152h373v-152zM1437 1716
h-372v152h372v-152zM102 214v-369h-152v369h152zM1437 -733h-372v149h372v-149zM2550 1288v-371h-149v371h149zM2550 214v-369h-149v369h149zM899 1716h-369v152h369v-152zM899 -733h-369v149h369v-149zM1973 -733h-373v149h373v-149zM2550 -733h-416v149h267v266h149v-415z
M364 -733h-414v415h152v-266h262v-149zM2401 1716h-267v152h416v-416h-149v264zM102 1452h-152v416h414v-152h-262v-264z" />
    <glyph glyph-name="uniFFFD" unicode="&#xfffd;" vert-adv-y="2850" 
d="M1013 -102q0 -85 48.5 -134.5t144.5 -49.5q94 0 142 49.5t48 134.5q0 88 -48 138t-142 50q-96 0 -144.5 -50t-48.5 -138zM1050 274h288v65q0 29 5 55t16 47q11 22 43 52t85 70q137 107 187 193q53 91 53 212q0 186 -128 290q-129 105 -353 105q-55 0 -113.5 -9
t-121.5 -29q-64 -20 -120 -43.5t-105 -52.5l112 -243q111 54 195.5 81.5t146.5 27.5q87 0 129 -39t42 -104q0 -35 -6.5 -62.5t-20.5 -51.5q-14 -23 -47.5 -57t-90.5 -78q-47 -37 -83.5 -75t-61.5 -80.5t-38 -90t-13 -102.5v-81zM-35 618l1284 1283l1286 -1283l-1286 -1282z
" />
    <glyph glyph-name="u1F004" unicode="&#x1f004;" vert-adv-y="2850" 
d="M1060 1071l89 -43l89 117l-99 46l-7 -4l-76 -103l-3 -7q0 -4 7 -6zM1325 943l101 -47l6 4l78 104l1 5l-4 7l-93 44zM826 1042l3 8l234 316q4 6 11 6q2 0 249 -118l164 215q4 5 11 5l6 -1l150 -71q6 -5 6 -14l-2 -8l-160 -210l234 -112q6 -3 6 -12l-2 -8l-233 -318
q-4 -5 -12 -5l-6 1l-245 118l-187 -245l-11 -5l-5 1l-150 71q-9 10 -9 14l4 8l183 239l-231 111q-8 3 -8 14zM2086 889l1 172l-603 -804q-36 -48 -90.5 -76t-120.5 -28q-32 0 -59.5 6.5t-52.5 17.5l-747 355v-226q0 -44 47 -66l751 -357q24 -12 57 -12q36 0 68.5 15t52.5 41
l677 908q19 27 19 54zM414 708q0 -46 47 -68l751 -357q9 -5 23 -8t34 -3q36 0 68.5 15t52.5 41l679 908q20 26 20 54q0 39 -48 62l-750 357q-26 13 -57 13q-41 0 -70.5 -14.5t-50.5 -41.5l-681 -909q-18 -24 -18 -49zM2204 1284v-435q0 -99 -6 -135q-6 -40 -37 -81
l-677 -908q-36 -49 -94.5 -76.5t-120.5 -27.5q-59 0 -108 24l-751 356q-53 25 -83 70t-30 102v538q0 62 41 116l679 908q36 49 93.5 76.5t123.5 27.5q29 0 55.5 -5.5t50.5 -17.5l751 -357q51 -24 82 -68.5t31 -106.5z" />
    </font>
</defs>
</svg>
